<?xml version="1.0" encoding="utf-8"?>
<!-- Generator: Adobe Illustrator 23.0.3, SVG Export Plug-In . SVG Version: 6.00 Build 0)  -->
<svg version="1.1" id="Layer_1" xmlns="http://www.w3.org/2000/svg" xmlns:xlink="http://www.w3.org/1999/xlink" x="0px" y="0px"
	 viewBox="0 0 108 98.26" style="enable-background:new 0 0 108 98.26;" xml:space="preserve">
<style type="text/css">
	.st0{fill-rule:evenodd;clip-rule:evenodd;fill:#333F70;}
	.st1{fill:#B22C2F;}
	.st2{fill-rule:evenodd;clip-rule:evenodd;fill:#B22C2F;}
	.st3{fill-rule:evenodd;clip-rule:evenodd;fill:#BDBEC0;}
</style>
<path class="st0" d="M67.62,2.82L67.62,2.82h-0.01c-0.11,0-0.21,0.01-0.31,0.02c-1,0.17-1.84,1.1-2.08,1.4
	c-0.53,0.16-1.21,0.4-2,0.72c0.53-0.37,1.35-1.02,1.69-1.66C65.63,1.95,65.08,0,65.08,0s-1.67,0.71-2.15,2.11
	c-0.5,1.47-0.29,2.7-0.21,3.05c-1.1,0.48-2.39,1.12-3.78,1.99c0.46-0.48,1.1-1.22,1.31-1.87c0.48-1.49-0.42-3.35-0.42-3.35
	s-1.55,1.01-1.78,2.5c-0.23,1.53,0.16,2.7,0.32,3.08c-1.06,0.7-2.18,1.53-3.32,2.52c0.36-0.56,0.79-1.33,0.88-1.95
	c0.22-1.58-1.01-3.29-1.01-3.29s-1.38,1.29-1.35,2.83c0.04,1.5,0.59,2.58,0.83,2.98c-0.93,0.82-1.83,1.76-2.67,2.83
	c0.22-0.58,0.43-1.26,0.41-1.81c-0.06-1.63-1.6-3.13-1.6-3.13s-1.16,1.54-0.85,3.08c0.29,1.43,0.98,2.4,1.32,2.8
	c-0.77,1.07-1.49,2.23-2.14,3.46c0.14-0.65,0.25-1.44,0.12-2.02c-0.35-1.63-2.16-2.86-2.16-2.86s-0.9,1.75-0.31,3.25
	c0.56,1.44,1.47,2.29,1.86,2.61c-0.58,1.2-1.08,2.47-1.51,3.79c0.03-0.68,0-1.52-0.24-2.09c-0.64-1.57-2.68-2.49-2.68-2.49
	s-0.59,1.92,0.27,3.32c0.82,1.34,1.89,2.04,2.33,2.3c-0.35,1.23-0.63,2.5-0.83,3.8c-0.1-0.65-0.27-1.38-0.58-1.87
	c-0.92-1.47-3.13-2.03-3.13-2.03s-0.25,2.03,0.85,3.29c1.02,1.16,2.17,1.68,2.7,1.87c-0.13,1.21-0.18,2.43-0.15,3.66
	c-0.21-0.58-0.49-1.2-0.85-1.6c-1.19-1.31-3.51-1.48-3.51-1.48s0.11,2.09,1.44,3.15c1.2,0.96,2.41,1.29,2.99,1.4
	c0.09,1.18,0.27,2.36,0.53,3.54c-0.32-0.56-0.72-1.15-1.16-1.49c-0.99-0.77-2.44-0.89-3.23-0.89h-0.02c-0.33,0-0.54,0.02-0.54,0.02
	s0.48,2.08,2.01,2.91c1.4,0.76,2.69,0.87,3.28,0.87c0.27,1.13,0.62,2.22,1.03,3.27c-0.4-0.48-0.89-0.96-1.36-1.21
	c-0.64-0.34-1.39-0.44-2.07-0.44c-1.04,0-1.89,0.24-1.89,0.24s0.85,2.01,2.53,2.57c1.5,0.51,2.79,0.4,3.41,0.3
	c0.5,1.08,1.06,2.11,1.68,3.1c-0.51-0.43-1.1-0.85-1.65-1.03c-0.38-0.12-0.77-0.17-1.16-0.17c-1.46,0-2.85,0.67-2.85,0.67
	s1.21,1.86,3,2.14c1.64,0.25,2.94-0.11,3.52-0.31c0.7,0.99,1.45,1.92,2.25,2.8c-0.6-0.35-1.3-0.7-1.9-0.78
	c-0.15-0.02-0.31-0.03-0.47-0.03c-1.75,0-3.48,1.25-3.48,1.25s1.54,1.66,3.4,1.61c1.7-0.04,2.95-0.64,3.49-0.95
	c0.85,0.85,1.74,1.65,2.66,2.37c-0.63-0.24-1.35-0.44-1.94-0.44h0h0h0h0h0h0h0h0c-0.03,0-0.05,0-0.08,0
	c-1.95,0.07-3.75,1.92-3.75,1.92s1.85,1.39,3.7,1.02c1.69-0.34,2.83-1.15,3.33-1.56c0.92,0.66,1.86,1.26,2.81,1.78
	c-0.39-0.06-0.8-0.11-1.18-0.11h-0.01c-0.25,0-0.49,0.02-0.7,0.07c-1.95,0.42-3.43,2.59-3.43,2.59s2.1,1.07,3.9,0.37
	c1.57-0.62,2.57-1.58,3.02-2.1c1.02,0.48,2.04,0.89,3.04,1.21c-0.66,0.01-1.35,0.08-1.87,0.29c-1.88,0.77-2.98,3.21-2.98,3.21
	s2.3,0.71,3.98-0.32c1.53-0.93,2.36-2.13,2.7-2.71c1.7,0.3,3.19,0.73,4.49,1.21c-0.24-0.01-0.51-0.03-0.79-0.03
	c-0.7,0-1.47,0.07-2.03,0.29c-1.88,0.77-2.98,3.21-2.98,3.21s2.3,0.71,3.98-0.32c1.61-0.98,2.44-2.25,2.75-2.79
	c0.19,0.08,0.38,0.16,0.57,0.25c0.86,0.24,1.71,0.18,2.57,0c0.12-0.06,0.25-0.11,0.38-0.17c0.34,0.58,1.17,1.78,2.7,2.71
	c1.68,1.02,3.98,0.32,3.98,0.32s-1.1-2.45-2.98-3.21c-0.56-0.23-1.32-0.29-2.03-0.29c-0.18,0-0.35,0-0.52,0.01
	c1.29-0.48,2.78-0.9,4.45-1.2c0.34,0.58,1.17,1.78,2.7,2.71c1.68,1.02,3.98,0.32,3.98,0.32s-1.1-2.45-2.98-3.21
	c-0.52-0.21-1.21-0.28-1.86-0.29c1-0.32,2.02-0.72,3.03-1.21c0.45,0.52,1.45,1.48,3.02,2.1c1.8,0.7,3.9-0.37,3.9-0.37
	s-1.48-2.17-3.43-2.59c-0.21-0.05-0.45-0.07-0.7-0.07h-0.01c-0.38,0-0.79,0.04-1.18,0.11c0.95-0.53,1.89-1.12,2.81-1.78
	c0.5,0.41,1.64,1.22,3.33,1.56c1.85,0.37,3.7-1.02,3.7-1.02s-1.79-1.85-3.75-1.92c-0.03,0-0.05,0-0.08,0h0h0h0h0h0h0h0h0
	c-0.59,0-1.31,0.21-1.94,0.44c0.92-0.73,1.81-1.52,2.66-2.37c0.54,0.31,1.79,0.91,3.49,0.95c1.85,0.05,3.4-1.61,3.4-1.61
	s-1.73-1.25-3.48-1.25c-0.16,0-0.31,0.01-0.47,0.03c-0.6,0.08-1.3,0.42-1.89,0.78c0.8-0.88,1.55-1.82,2.25-2.8
	c0.58,0.21,1.88,0.56,3.52,0.31c1.79-0.27,3-2.14,3-2.14s-1.39-0.67-2.85-0.67c-0.39,0-0.79,0.05-1.16,0.17
	c-0.54,0.17-1.14,0.6-1.64,1.03c0.62-0.99,1.18-2.02,1.68-3.09c0.62,0.1,1.91,0.2,3.41-0.3c1.68-0.57,2.53-2.57,2.53-2.57
	s-0.86-0.24-1.89-0.24c-0.67,0-1.43,0.1-2.07,0.44c-0.47,0.25-0.95,0.73-1.35,1.2c0.41-1.05,0.76-2.14,1.03-3.27
	c0.59,0,1.89-0.11,3.28-0.87c1.53-0.83,2.01-2.91,2.01-2.91s-0.21-0.02-0.54-0.02h-0.02c-0.79,0-2.24,0.12-3.23,0.89
	c-0.44,0.34-0.84,0.93-1.16,1.49c0.26-1.18,0.43-2.36,0.52-3.54c0.58-0.11,1.79-0.44,2.99-1.4c1.33-1.07,1.44-3.15,1.44-3.15
	s-2.32,0.17-3.51,1.48c-0.36,0.39-0.64,1.01-0.85,1.6c0.03-1.23-0.02-2.46-0.15-3.66c0.53-0.19,1.67-0.71,2.69-1.87
	c1.11-1.26,0.85-3.29,0.85-3.29s-2.21,0.56-3.13,2.03c-0.3,0.49-0.48,1.22-0.58,1.86c-0.19-1.3-0.47-2.57-0.83-3.8
	c0.45-0.25,1.51-0.95,2.33-2.3c0.86-1.4,0.27-3.32,0.27-3.32s-2.04,0.92-2.68,2.49c-0.23,0.57-0.26,1.41-0.24,2.09
	c-0.43-1.32-0.93-2.58-1.51-3.79c0.39-0.32,1.3-1.18,1.86-2.61c0.59-1.5-0.31-3.25-0.31-3.25s-1.81,1.23-2.16,2.86
	c-0.12,0.58-0.02,1.38,0.12,2.02c-0.65-1.24-1.37-2.4-2.14-3.46c0.34-0.4,1.03-1.37,1.32-2.8c0.31-1.54-0.85-3.08-0.85-3.08
	s-1.54,1.5-1.6,3.13c-0.02,0.54,0.19,1.23,0.41,1.81c-0.85-1.06-1.74-2.01-2.67-2.82c0.24-0.41,0.79-1.49,0.83-2.98
	c0.04-1.54-1.35-2.83-1.35-2.83s-1.23,1.71-1.01,3.29c0.09,0.63,0.51,1.39,0.88,1.95c-1.13-0.99-2.25-1.82-3.31-2.52
	c0.15-0.38,0.55-1.56,0.32-3.08c-0.23-1.5-1.78-2.5-1.78-2.5s-0.9,1.86-0.42,3.35c0.21,0.65,0.85,1.39,1.31,1.87
	c-1.39-0.87-2.67-1.51-3.77-1.99c0.08-0.36,0.28-1.59-0.21-3.05C85.25,0.71,83.57,0,83.57,0s-0.55,1.95,0.17,3.3
	c0.33,0.63,1.16,1.28,1.69,1.65c-0.79-0.32-1.46-0.55-2-0.71c-0.24-0.3-1.08-1.23-2.08-1.4c-0.1-0.02-0.2-0.02-0.31-0.02h-0.01
	h-0.01c-0.85,0-1.97,0.43-1.97,0.43s0.69,0.94,2.07,1.41c1,0.34,2.11-0.19,2.32-0.31c0.7,0.24,1.63,0.6,2.73,1.12
	c-0.33-0.06-1.01-0.17-1.68-0.17h-0.02c-0.37,0-0.73,0.04-1.03,0.13c-1.46,0.48-2.41,2.26-2.41,2.26s1.7,0.65,3.01-0.03
	c1.47-0.76,2.17-1.87,2.3-2.1c1.15,0.56,2.48,1.29,3.89,2.26c-0.52-0.18-1.44-0.46-2.18-0.46c-0.12,0-0.23,0.01-0.33,0.02
	c-1.55,0.22-2.82,1.84-2.82,1.84s1.59,0.95,3.03,0.5c1.51-0.47,2.4-1.38,2.65-1.66c1.06,0.75,2.15,1.63,3.26,2.66
	c0.09,0.08,0.17,0.15,0.26,0.23c-0.57-0.32-1.64-0.86-2.44-0.88c-0.03,0-0.06,0-0.09,0c-1.56,0-3.08,1.35-3.08,1.35
	s1.43,1.24,2.96,1.04c1.62-0.21,2.68-0.98,2.97-1.21c1.04,1,2.04,2.18,2.95,3.49c-0.52-0.43-1.49-1.14-2.28-1.31
	c-0.2-0.04-0.41-0.06-0.62-0.06c-1.41,0-2.8,0.86-2.8,0.86s1.21,1.5,2.79,1.57c1.63,0.07,2.81-0.48,3.17-0.67
	c0.77,1.15,1.48,2.4,2.1,3.72c-0.47-0.52-1.18-1.19-1.82-1.45c-0.42-0.17-0.89-0.23-1.33-0.23c-1.18,0-2.24,0.43-2.24,0.43
	s0.95,1.72,2.52,2.07c1.51,0.34,2.72,0.06,3.21-0.08c0.54,1.23,1.01,2.52,1.39,3.85c-0.38-0.58-0.92-1.29-1.47-1.63
	c-0.71-0.44-1.61-0.55-2.33-0.55c-0.74,0-1.3,0.12-1.3,0.12s0.65,1.9,2.17,2.53c1.41,0.59,2.65,0.55,3.19,0.49
	c0.33,1.32,0.58,2.68,0.73,4.06c-0.28-0.66-0.7-1.48-1.21-1.93c-1.14-1.02-3.07-1.08-3.49-1.08c-0.05,0-0.08,0-0.08,0
	s0.32,2.02,1.73,2.92c1.32,0.85,2.58,1.02,3.13,1.06c0.1,1.35,0.1,2.71-0.01,4.08c-0.17-0.71-0.45-1.63-0.87-2.17
	c-1.09-1.39-3.4-1.72-3.4-1.72s-0.04,2.09,1.22,3.25c1.18,1.08,2.41,1.48,2.95,1.62c-0.14,1.23-0.37,2.46-0.7,3.68
	c-0.05-0.71-0.18-1.56-0.48-2.13c-0.85-1.59-3.11-2.33-3.11-2.33s-0.41,2.09,0.65,3.48c0.96,1.26,2.09,1.88,2.64,2.13
	c-0.35,1.22-0.78,2.4-1.29,3.53c0.08-0.73,0.11-1.63-0.1-2.27c-0.57-1.75-2.71-2.89-2.71-2.89s-0.78,2.03,0.04,3.61
	c0.74,1.43,1.76,2.26,2.27,2.6c-0.54,1.07-1.15,2.09-1.82,3.06c0.18-0.68,0.33-1.48,0.24-2.09c-0.26-1.86-2.21-3.39-2.21-3.39
	s-1.15,1.9-0.6,3.63c0.47,1.51,1.3,2.5,1.76,2.96c-0.7,0.92-1.45,1.8-2.24,2.62c0.28-0.62,0.54-1.34,0.56-1.93
	c0.06-1.91-1.62-3.79-1.62-3.79s-1.49,1.71-1.25,3.55c0.2,1.57,0.84,2.7,1.22,3.25c-0.83,0.78-1.7,1.51-2.58,2.17
	c0.38-0.57,0.75-1.22,0.87-1.79c0.4-1.91-0.96-4.1-0.96-4.1s-1.8,1.46-1.88,3.34c-0.07,1.61,0.37,2.85,0.65,3.48
	c-0.99,0.66-2,1.25-3.01,1.75c0.52-0.52,1.05-1.16,1.29-1.75c0.74-1.85-0.24-4.29-0.24-4.29s-2.07,1.14-2.48,3.03
	c-0.37,1.63-0.13,2.99,0.05,3.66c-1.06,0.45-2.11,0.82-3.14,1.09c0.58-0.42,1.18-0.93,1.51-1.46c1.07-1.73,0.52-4.35,0.52-4.35
	s-2.28,0.78-3.03,2.6c-0.61,1.47-0.66,2.79-0.61,3.53c-1.22,0.23-2.35,0.53-3.39,0.87c0.36-0.31,0.69-0.64,0.9-0.98
	c1.07-1.73,0.52-4.35,0.52-4.35s-2.28,0.78-3.03,2.6c-0.6,1.44-0.65,2.74-0.61,3.49c-0.56,0.09-1.1,0.07-1.65-0.05
	c0.04-0.76-0.03-2.03-0.62-3.44c-0.75-1.82-3.03-2.6-3.03-2.6s-0.55,2.63,0.52,4.35c0.18,0.3,0.46,0.59,0.77,0.87
	c-0.93-0.29-1.94-0.55-3.02-0.75c0.05-0.74,0-2.06-0.61-3.53c-0.75-1.82-3.03-2.6-3.03-2.6s-0.55,2.63,0.52,4.35
	c0.32,0.52,0.92,1.04,1.5,1.46c-1.03-0.27-2.08-0.63-3.13-1.09c0.18-0.67,0.41-2.02,0.05-3.66c-0.42-1.88-2.48-3.03-2.48-3.03
	s-0.98,2.44-0.24,4.29c0.24,0.59,0.77,1.23,1.29,1.75c-1.01-0.51-2.01-1.09-3-1.75c0.29-0.63,0.72-1.88,0.65-3.48
	c-0.09-1.89-1.88-3.34-1.88-3.34s-1.36,2.19-0.96,4.1c0.12,0.57,0.48,1.22,0.86,1.79c-0.89-0.66-1.75-1.39-2.58-2.17
	c0.38-0.56,1.02-1.69,1.22-3.25c0.24-1.84-1.25-3.55-1.25-3.55s-1.68,1.88-1.62,3.79c0.02,0.59,0.27,1.3,0.55,1.92
	c-0.79-0.82-1.54-1.69-2.24-2.61c0.46-0.46,1.29-1.45,1.76-2.96c0.54-1.73-0.6-3.63-0.6-3.63s-1.95,1.53-2.21,3.39
	c-0.09,0.61,0.06,1.41,0.24,2.09c-0.66-0.97-1.27-1.99-1.81-3.06c0.5-0.35,1.52-1.17,2.26-2.6c0.82-1.58,0.04-3.61,0.04-3.61
	s-2.14,1.14-2.71,2.89c-0.21,0.63-0.18,1.53-0.1,2.26c-0.51-1.13-0.94-2.31-1.29-3.53c0.54-0.25,1.67-0.87,2.64-2.13
	c1.06-1.38,0.65-3.48,0.65-3.48s-2.26,0.74-3.11,2.33c-0.3,0.56-0.43,1.41-0.48,2.12c-0.33-1.22-0.56-2.45-0.7-3.67
	c0.55-0.13,1.78-0.54,2.95-1.62c1.26-1.16,1.22-3.25,1.22-3.25s-2.31,0.33-3.4,1.72c-0.43,0.54-0.71,1.46-0.87,2.17
	c-0.11-1.37-0.1-2.73-0.01-4.08c0.55-0.04,1.81-0.21,3.13-1.06c1.41-0.9,1.73-2.92,1.73-2.92s-0.03,0-0.08,0
	c-0.42,0-2.34,0.06-3.49,1.08c-0.5,0.45-0.92,1.27-1.2,1.92c0.15-1.38,0.39-2.74,0.73-4.06c0.54,0.06,1.78,0.1,3.19-0.49
	c1.52-0.63,2.17-2.53,2.17-2.53s-0.56-0.12-1.3-0.12c-0.72,0-1.62,0.11-2.33,0.55c-0.55,0.34-1.09,1.04-1.47,1.62
	c0.38-1.33,0.85-2.62,1.39-3.84c0.48,0.15,1.7,0.42,3.2,0.08c1.57-0.35,2.52-2.07,2.52-2.07s-1.07-0.43-2.24-0.43
	c-0.45,0-0.91,0.06-1.33,0.23c-0.64,0.26-1.34,0.93-1.81,1.45c0.62-1.32,1.33-2.57,2.1-3.71c0.36,0.19,1.54,0.75,3.17,0.67
	c1.57-0.07,2.79-1.57,2.79-1.57s-1.38-0.86-2.8-0.86c-0.21,0-0.42,0.02-0.62,0.06c-0.78,0.16-1.75,0.88-2.27,1.3
	c0.91-1.31,1.91-2.49,2.95-3.49c0.29,0.23,1.35,0.99,2.96,1.2c1.53,0.2,2.96-1.04,2.96-1.04s-1.51-1.35-3.08-1.35
	c-0.03,0-0.06,0-0.09,0c-0.79,0.03-1.86,0.56-2.43,0.88c0.08-0.08,0.17-0.16,0.26-0.23C55.9,9.69,57,8.81,58.06,8.06
	c0.25,0.28,1.14,1.19,2.65,1.66c1.44,0.45,3.03-0.5,3.03-0.5s-1.28-1.62-2.82-1.84c-0.1-0.02-0.22-0.02-0.33-0.02
	c-0.74,0-1.66,0.28-2.18,0.46c1.41-0.97,2.73-1.71,3.88-2.26c0.14,0.24,0.84,1.34,2.3,2.1c1.32,0.68,3.01,0.03,3.01,0.03
	s-0.96-1.78-2.41-2.26c-0.3-0.1-0.66-0.13-1.03-0.13h-0.02c-0.67,0-1.35,0.11-1.68,0.17c1.09-0.52,2.03-0.88,2.72-1.12
	c0.22,0.11,1.33,0.65,2.32,0.31c1.39-0.48,2.07-1.41,2.07-1.41S68.47,2.82,67.62,2.82"/>
<path class="st0" d="M0.92,9.96c0.5,0.74,1.19,1.55,1.77,2.27c0.54,0.66,1.14,1.68,1.8,2.27c2.19-1.16,4.29-3.59,8.97-4.86
	C28.88,5.42,35.51,18,25.8,31.73c-1.58,2.23-3.45,3.92-4.83,5.54L0.16,58.4l-0.08,5.98l39.85,0.01v-6.39l-31.17,0
	c0.24-0.93,3.84-3.93,4.83-4.94l12.92-12.89c0.35-0.41,0.58-0.72,0.94-1.1c4.42-4.73,8.32-9.44,9.58-16.43
	c1.86-10.3-3.77-17.15-12.06-19.06C16.93,1.74,9.59,3.85,3.09,8.21L0.92,9.96z"/>
<path class="st1" d="M99.37,83.33v-1.96c0.23,0.2,0.5,0.38,0.81,0.54c0.32,0.16,0.65,0.29,0.99,0.4c0.35,0.11,0.7,0.19,1.05,0.25
	c0.35,0.06,0.68,0.09,0.97,0.09c1.03,0,1.79-0.19,2.3-0.57c0.5-0.38,0.76-0.93,0.76-1.64c0-0.39-0.08-0.72-0.25-1
	c-0.17-0.28-0.4-0.55-0.7-0.78c-0.3-0.24-0.65-0.46-1.06-0.68c-0.41-0.21-0.85-0.44-1.32-0.68c-0.49-0.25-0.96-0.51-1.39-0.77
	c-0.43-0.26-0.8-0.54-1.12-0.85c-0.32-0.31-0.57-0.66-0.75-1.06c-0.18-0.39-0.27-0.85-0.27-1.38c0-0.65,0.14-1.21,0.43-1.69
	c0.28-0.48,0.66-0.87,1.12-1.19c0.46-0.31,0.99-0.54,1.59-0.69c0.59-0.15,1.2-0.23,1.81-0.23c1.4,0,2.43,0.17,3.07,0.51v1.88
	c-0.84-0.58-1.92-0.87-3.24-0.87c-0.37,0-0.73,0.04-1.09,0.11c-0.36,0.08-0.69,0.2-0.97,0.37c-0.28,0.17-0.52,0.4-0.69,0.67
	c-0.18,0.27-0.27,0.6-0.27,0.99c0,0.36,0.07,0.68,0.2,0.94c0.14,0.26,0.34,0.5,0.6,0.72c0.26,0.22,0.59,0.43,0.97,0.63
	c0.38,0.21,0.82,0.43,1.31,0.67c0.51,0.25,0.99,0.52,1.45,0.8c0.46,0.28,0.86,0.59,1.2,0.92c0.35,0.34,0.62,0.71,0.82,1.12
	c0.2,0.41,0.3,0.88,0.3,1.41c0,0.7-0.14,1.3-0.41,1.78c-0.27,0.49-0.65,0.88-1.11,1.19c-0.47,0.3-1.01,0.53-1.61,0.66
	c-0.61,0.14-1.25,0.2-1.93,0.2c-0.22,0-0.5-0.02-0.83-0.05c-0.33-0.04-0.67-0.09-1.01-0.16c-0.34-0.07-0.67-0.16-0.98-0.26
	C99.81,83.57,99.56,83.46,99.37,83.33 M76.68,71.18v5.16h2.26c0.42,0,0.8-0.06,1.16-0.19c0.36-0.13,0.66-0.3,0.92-0.54
	c0.26-0.23,0.46-0.52,0.61-0.86c0.15-0.34,0.22-0.72,0.22-1.15c0-0.76-0.24-1.36-0.74-1.78c-0.49-0.43-1.21-0.64-2.14-0.64H76.68z
	 M85.22,83.91h-1.99l-2.39-3.99c-0.22-0.37-0.43-0.68-0.63-0.95c-0.21-0.26-0.42-0.47-0.63-0.64c-0.22-0.17-0.45-0.29-0.69-0.36
	c-0.25-0.08-0.53-0.12-0.84-0.12h-1.37v6.05h-1.67V69.68h4.25c0.62,0,1.2,0.08,1.72,0.23c0.53,0.16,0.98,0.39,1.37,0.71
	c0.39,0.32,0.69,0.71,0.91,1.19c0.22,0.47,0.33,1.03,0.33,1.66c0,0.49-0.07,0.95-0.22,1.37s-0.36,0.78-0.63,1.1
	c-0.27,0.33-0.61,0.6-0.99,0.83c-0.39,0.23-0.82,0.41-1.31,0.53v0.04c0.24,0.11,0.45,0.23,0.62,0.36c0.17,0.14,0.34,0.3,0.5,0.48
	c0.16,0.18,0.32,0.39,0.47,0.63c0.16,0.23,0.33,0.5,0.52,0.82L85.22,83.91z M56.15,78.42l-2.23-6.06c-0.07-0.2-0.15-0.52-0.22-0.95
	h-0.04c-0.06,0.4-0.14,0.72-0.23,0.95l-2.22,6.06H56.15z M60.05,83.91h-1.85l-1.51-3.99h-6.04l-1.42,3.99h-1.85l5.46-14.23h1.73
	L60.05,83.91z M33.33,83.91h-7.54V69.68h7.23v1.51h-5.56v4.74h5.14v1.5h-5.14v4.98h5.87V83.91z M10.94,69.68l-4.69,8.97v5.26H4.57
	v-5.22L0,69.68h1.89l3.19,6.43c0.04,0.08,0.16,0.37,0.35,0.87h0.03c0.07-0.22,0.19-0.52,0.38-0.87l3.34-6.43H10.94z"/>
<path d="M80.74,44.02v-0.83c0.47,0.3,0.95,0.45,1.43,0.45c0.48,0,0.88-0.14,1.17-0.41c0.3-0.27,0.45-0.64,0.45-1.09
	c0-0.45-0.15-0.8-0.45-1.05c-0.3-0.25-0.73-0.38-1.3-0.38c-0.19,0-0.55,0.02-1.08,0.06v-3.43h3.32v0.71H81.7v2.01
	c0.21-0.01,0.41-0.02,0.58-0.02c0.73,0,1.3,0.18,1.7,0.55c0.4,0.37,0.6,0.87,0.6,1.51c0,0.66-0.22,1.19-0.65,1.6
	c-0.43,0.4-1.02,0.61-1.77,0.61C81.53,44.3,81.06,44.2,80.74,44.02 M79.4,44.18h-3.87V43.5h1.55v-5.32l-1.59,0.47V37.9l2.37-0.72
	v6.31h1.54V44.18z M72.1,37.89c-0.98,0-1.47,0.99-1.47,2.97c0,1.85,0.48,2.78,1.44,2.78c0.95,0,1.42-0.94,1.42-2.83
	C73.49,38.86,73.02,37.89,72.1,37.89z M71.99,44.3c-0.68,0-1.21-0.29-1.59-0.87c-0.38-0.58-0.57-1.42-0.57-2.53
	c0-1.21,0.2-2.12,0.59-2.74c0.4-0.62,0.97-0.93,1.72-0.93c1.43,0,2.15,1.17,2.15,3.51c0,1.16-0.2,2.04-0.61,2.65
	C73.28,43.99,72.71,44.3,71.99,44.3z M68.73,44.18h-4.13v-0.7l2-2c0.51-0.51,0.87-0.93,1.09-1.27c0.22-0.34,0.33-0.7,0.33-1.09
	c0-0.39-0.11-0.7-0.34-0.92c-0.23-0.22-0.55-0.32-0.96-0.32c-0.61,0-1.2,0.26-1.76,0.78v-0.82c0.53-0.42,1.16-0.63,1.87-0.63
	c0.61,0,1.09,0.17,1.44,0.5c0.35,0.33,0.53,0.78,0.53,1.33c0,0.44-0.12,0.87-0.36,1.29c-0.24,0.42-0.68,0.94-1.3,1.56l-1.58,1.56
	v0.02h3.19V44.18z M80.74,29.91v-0.83c0.47,0.3,0.95,0.45,1.43,0.45c0.48,0,0.88-0.14,1.17-0.41c0.3-0.27,0.45-0.64,0.45-1.09
	c0-0.45-0.15-0.8-0.45-1.05c-0.3-0.25-0.73-0.38-1.3-0.38c-0.19,0-0.55,0.02-1.08,0.06v-3.43h3.32v0.71H81.7v2.01
	c0.21-0.01,0.41-0.02,0.58-0.02c0.73,0,1.3,0.18,1.7,0.55c0.4,0.37,0.6,0.87,0.6,1.51c0,0.66-0.22,1.19-0.65,1.6
	c-0.43,0.4-1.02,0.61-1.77,0.61C81.53,30.19,81.06,30.1,80.74,29.91z M77.27,23.78c-0.38,0-0.69,0.14-0.95,0.43
	c-0.25,0.29-0.38,0.65-0.38,1.09c0,0.48,0.12,0.86,0.37,1.13c0.25,0.28,0.58,0.41,1.01,0.41c0.37,0,0.68-0.13,0.94-0.38
	c0.26-0.25,0.38-0.56,0.38-0.92c0-0.52-0.13-0.94-0.38-1.27C78.01,23.95,77.68,23.78,77.27,23.78z M75.51,29.97v-0.75
	c0.38,0.22,0.79,0.32,1.21,0.32c0.62,0,1.1-0.25,1.45-0.75c0.35-0.5,0.52-1.21,0.52-2.13c-0.01,0-0.01,0-0.02,0
	c-0.29,0.59-0.8,0.88-1.53,0.88c-0.59,0-1.07-0.2-1.44-0.6c-0.37-0.4-0.56-0.91-0.56-1.54c0-0.67,0.21-1.22,0.62-1.64
	c0.41-0.43,0.94-0.64,1.58-0.64c0.67,0,1.2,0.27,1.58,0.8c0.38,0.53,0.57,1.31,0.57,2.33c0,1.26-0.24,2.24-0.74,2.92
	c-0.49,0.68-1.17,1.03-2.04,1.03C76.25,30.19,75.85,30.12,75.51,29.97z M72,23.78c-0.38,0-0.69,0.14-0.95,0.43
	c-0.25,0.29-0.38,0.65-0.38,1.09c0,0.48,0.12,0.86,0.37,1.13c0.25,0.28,0.59,0.41,1.01,0.41c0.37,0,0.68-0.13,0.94-0.38
	c0.26-0.25,0.38-0.56,0.38-0.92c0-0.52-0.13-0.94-0.38-1.27C72.74,23.95,72.4,23.78,72,23.78z M70.24,29.97v-0.75
	c0.38,0.22,0.79,0.32,1.21,0.32c0.62,0,1.1-0.25,1.45-0.75c0.35-0.5,0.52-1.21,0.52-2.13c-0.01,0-0.01,0-0.02,0
	c-0.29,0.59-0.8,0.88-1.53,0.88c-0.59,0-1.07-0.2-1.44-0.6c-0.37-0.4-0.56-0.91-0.56-1.54c0-0.67,0.21-1.22,0.62-1.64
	c0.41-0.43,0.94-0.64,1.58-0.64c0.67,0,1.2,0.27,1.58,0.8c0.38,0.53,0.57,1.31,0.57,2.33c0,1.26-0.24,2.24-0.73,2.92
	c-0.49,0.68-1.17,1.03-2.04,1.03C70.98,30.19,70.58,30.12,70.24,29.97z M68.86,30.08h-3.87v-0.69h1.55v-5.32l-1.59,0.47V23.8
	l2.37-0.72v6.31h1.54V30.08z"/>
<rect x="60.25" y="33.36" class="st2" width="28.69" height="0.66"/>
<rect x="70.58" y="97.6" class="st3" width="37.42" height="0.65"/>
<rect x="0.1" y="97.6" class="st3" width="37.42" height="0.65"/>
<polygon class="st3" points="41.04,90.61 44.6,93.8 46.02,93.8 41.04,89.3 36.07,93.8 37.48,93.8 "/>
<polygon class="st3" points="37.48,98.26 40.05,98.26 40.05,95.64 42.04,95.64 42.04,98.26 44.6,98.26 44.6,94.17 41.04,90.92 
	37.48,94.17 "/>
<polygon class="st2" points="54.03,90.61 57.59,93.8 59,93.8 54.03,89.3 49.05,93.8 50.47,93.8 "/>
<polygon class="st2" points="50.47,98.26 53.03,98.26 53.03,95.64 55.02,95.64 55.02,98.26 57.59,98.26 57.59,94.17 54.03,90.92 
	50.47,94.17 "/>
<polygon class="st3" points="67.02,90.61 70.58,93.8 71.99,93.8 67.02,89.3 62.04,93.8 63.45,93.8 "/>
<polygon class="st3" points="63.45,98.26 66.02,98.26 66.02,95.64 68.01,95.64 68.01,98.26 70.58,98.26 70.58,94.17 67.02,90.92 
	63.45,94.17 "/>
</svg>
