<?xml version="1.0" encoding="utf-8"?>
<!-- Generator: Adobe Illustrator 23.0.3, SVG Export Plug-In . SVG Version: 6.00 Build 0)  -->
<svg version="1.1" id="Layer_1" xmlns="http://www.w3.org/2000/svg" xmlns:xlink="http://www.w3.org/1999/xlink" x="0px" y="0px"
	 viewBox="0 0 144.11 76.08" style="enable-background:new 0 0 144.11 76.08;" xml:space="preserve">
<style type="text/css">
	.st0{fill-rule:evenodd;clip-rule:evenodd;fill:#B24637;}
	.st1{fill-rule:evenodd;clip-rule:evenodd;fill:#616163;}
	.st2{fill:#B24637;}
	.st3{fill-rule:evenodd;clip-rule:evenodd;fill:#E6E7E7;}
	.st4{fill:#616163;}
	.st5{fill:none;stroke:#000000;stroke-width:0.216;stroke-miterlimit:2.6131;}
</style>
<path class="st0" d="M9.54,11.51L21.4,0l18.19,16.96h-1.6L27.01,6.59L15.87,16.96L9.54,11.51z M9.54,13.36l6.33,5.45v16.52
	l-6.33-5.62V13.36z"/>
<polygon class="st1" points="29.78,22.76 23.54,17.4 23.54,39.81 6.51,39.81 6.51,22.94 0,17.05 0,39.46 6.15,45.17 29.78,45.17 "/>
<path class="st2" d="M131.14,30.99h3.44v-9.73h3.25v-2.79h-9.96v2.79h3.27V30.99z M121.37,26.26l1.29-5.19h0.23l1.26,5.19H121.37z
	 M116.51,30.99h3.65l0.58-2.19h4l0.58,2.19h3.65l-3.56-12.52h-5.24L116.51,30.99z M98.6,18.47l1.96,12.52h4.91l1.61-8.49l1.56,8.49
	h4.86l2.11-12.52h-3.43l-1.33,9.6l-1.82-9.6h-3.81l-1.97,9.6l-1.21-9.6H98.6z M85.49,30.99h3.41V26.1h4.44v4.89h3.41V18.47h-3.41
	v4.69H88.9v-4.69h-3.41V30.99z M72.82,27.12v0.86c0,0.74,0.15,1.35,0.45,1.82c0.3,0.47,0.77,0.81,1.4,1.03
	c0.63,0.22,1.43,0.33,2.4,0.32h2.78c0.75-0.01,1.39-0.15,1.93-0.43c0.54-0.28,0.96-0.68,1.25-1.19c0.29-0.51,0.44-1.11,0.44-1.8
	v-1.21c0-0.9-0.27-1.61-0.8-2.11c-0.54-0.51-1.35-0.82-2.43-0.94l-2.52-0.28c-0.3-0.03-0.56-0.07-0.76-0.11
	c-0.2-0.04-0.36-0.12-0.46-0.23c-0.1-0.11-0.16-0.28-0.16-0.5v-0.52c0-0.22,0.05-0.39,0.15-0.52c0.1-0.12,0.25-0.21,0.46-0.26
	c0.21-0.05,0.48-0.07,0.81-0.07h0.79c0.31,0,0.55,0.03,0.73,0.09c0.18,0.06,0.31,0.17,0.39,0.31c0.08,0.15,0.12,0.34,0.12,0.6v0.14
	h3.27v-0.86c0-0.63-0.15-1.16-0.44-1.6c-0.3-0.44-0.73-0.77-1.31-1c-0.58-0.23-1.3-0.35-2.16-0.35h-2.04
	c-0.46,0-0.87,0.01-1.25,0.04c-0.37,0.03-0.71,0.1-1.01,0.2c-0.3,0.1-0.57,0.25-0.82,0.45c-0.36,0.3-0.63,0.67-0.82,1.12
	c-0.19,0.46-0.28,0.98-0.28,1.57v0.78c0,0.69,0.1,1.26,0.31,1.72c0.21,0.46,0.53,0.82,0.97,1.07c0.44,0.26,1,0.42,1.69,0.49
	l2.76,0.29c0.31,0.03,0.56,0.07,0.77,0.13c0.2,0.05,0.35,0.14,0.45,0.26c0.1,0.12,0.15,0.3,0.15,0.54v0.55
	c0,0.23-0.04,0.42-0.14,0.55c-0.09,0.14-0.24,0.24-0.45,0.29c-0.2,0.06-0.47,0.09-0.81,0.08h-0.86c-0.41,0-0.74-0.04-0.98-0.11
	c-0.24-0.08-0.42-0.21-0.52-0.38c-0.1-0.18-0.16-0.42-0.15-0.72v-0.12H72.82z M64.5,26.26l1.29-5.19h0.23l1.26,5.19H64.5z
	 M59.64,30.99h3.65l0.58-2.19h4l0.58,2.19h3.65l-3.56-12.52H63.3L59.64,30.99z M46.76,30.99h3.41V26.1h4.44v4.89h3.41V18.47h-3.41
	v4.69h-4.44v-4.69h-3.41V30.99z M34.09,27.12v0.86c0,0.74,0.15,1.35,0.45,1.82c0.3,0.47,0.77,0.81,1.4,1.03
	c0.63,0.22,1.43,0.33,2.4,0.32h2.78c0.75-0.01,1.39-0.15,1.93-0.43c0.54-0.28,0.96-0.68,1.25-1.19c0.29-0.51,0.44-1.11,0.44-1.8
	v-1.21c0-0.9-0.27-1.61-0.8-2.11c-0.54-0.51-1.35-0.82-2.43-0.94l-2.52-0.28c-0.3-0.03-0.56-0.07-0.76-0.11
	c-0.2-0.04-0.36-0.12-0.46-0.23c-0.1-0.11-0.16-0.28-0.16-0.5v-0.52c0-0.22,0.05-0.39,0.15-0.52c0.1-0.12,0.25-0.21,0.46-0.26
	c0.21-0.05,0.48-0.07,0.81-0.07h0.79c0.31,0,0.55,0.03,0.73,0.09c0.18,0.06,0.31,0.17,0.39,0.31c0.08,0.15,0.12,0.34,0.12,0.6v0.14
	h3.27v-0.86c0-0.63-0.15-1.16-0.44-1.6c-0.3-0.44-0.73-0.77-1.31-1c-0.58-0.23-1.3-0.35-2.16-0.35h-2.04
	c-0.46,0-0.87,0.01-1.25,0.04c-0.37,0.03-0.71,0.1-1.01,0.2c-0.3,0.1-0.57,0.25-0.82,0.45c-0.36,0.3-0.63,0.67-0.82,1.12
	c-0.19,0.46-0.28,0.98-0.28,1.57v0.78c0,0.69,0.1,1.26,0.31,1.72c0.21,0.46,0.53,0.82,0.97,1.07c0.44,0.26,1,0.42,1.69,0.49
	l2.76,0.29c0.31,0.03,0.57,0.07,0.77,0.13c0.2,0.05,0.35,0.14,0.45,0.26c0.1,0.12,0.15,0.3,0.15,0.54v0.55
	c0,0.23-0.04,0.42-0.14,0.55c-0.09,0.14-0.24,0.24-0.45,0.29c-0.2,0.06-0.47,0.09-0.81,0.08h-0.86c-0.41,0-0.74-0.04-0.98-0.11
	c-0.24-0.08-0.42-0.21-0.52-0.38c-0.1-0.18-0.16-0.42-0.15-0.72v-0.12H34.09z"/>
<rect x="49.39" y="33.6" class="st1" width="1.04" height="11.57"/>
<path d="M132.19,43.83v-8.88h2.78c0.66,0,1.14,0.06,1.45,0.17c0.43,0.15,0.77,0.44,1.02,0.85c0.25,0.42,0.38,0.93,0.38,1.53
	c0,0.8-0.21,1.45-0.62,1.96c-0.41,0.5-1.13,0.76-2.14,0.76h-1.89v3.61H132.19z M133.17,39.17h1.91c0.6,0,1.04-0.13,1.32-0.4
	c0.28-0.27,0.42-0.67,0.42-1.21c0-0.35-0.07-0.65-0.21-0.9c-0.14-0.25-0.3-0.42-0.5-0.52c-0.19-0.09-0.55-0.14-1.05-0.14h-1.89
	V39.17z"/>
<path d="M113.24,34.8h0.98v5.13c0,0.86-0.08,1.57-0.25,2.12c-0.17,0.55-0.48,0.99-0.93,1.31c-0.45,0.32-1.02,0.48-1.71,0.48
	c-0.98,0-1.71-0.29-2.19-0.86c-0.48-0.57-0.73-1.59-0.73-3.04V34.8h0.98v5.13c0,0.8,0.06,1.39,0.19,1.74
	c0.13,0.36,0.33,0.63,0.62,0.82c0.29,0.19,0.64,0.28,1.05,0.28c0.7,0,1.2-0.19,1.52-0.58c0.31-0.39,0.47-1.14,0.47-2.26V34.8z"/>
<path d="M83.38,39.35c0-1.51,0.34-2.68,1.01-3.49c0.68-0.81,1.52-1.22,2.53-1.22c0.65,0,1.24,0.18,1.78,0.55
	c0.54,0.36,0.96,0.89,1.28,1.58c0.31,0.69,0.47,1.52,0.47,2.47c0,1.32-0.3,2.39-0.91,3.22c-0.67,0.91-1.54,1.37-2.62,1.37
	c-1.09,0-1.97-0.47-2.63-1.4C83.68,41.58,83.38,40.55,83.38,39.35 M84.39,39.37c0,1.09,0.24,1.94,0.73,2.55
	c0.49,0.6,1.08,0.91,1.79,0.91c0.72,0,1.32-0.31,1.8-0.91c0.48-0.61,0.73-1.51,0.73-2.69c0-0.76-0.13-1.45-0.38-2.05
	c-0.19-0.46-0.48-0.83-0.87-1.11c-0.39-0.28-0.81-0.42-1.27-0.42c-0.74,0-1.34,0.3-1.82,0.91C84.62,37.17,84.39,38.1,84.39,39.37z"
	/>
<path d="M58.9,43.83v-8.88h3.28c0.69,0,1.19,0.08,1.52,0.25c0.32,0.17,0.59,0.44,0.8,0.83c0.21,0.39,0.31,0.83,0.31,1.34
	c0,0.67-0.18,1.21-0.53,1.63c-0.35,0.42-0.87,0.68-1.55,0.79c0.28,0.16,0.48,0.32,0.63,0.49c0.29,0.34,0.55,0.72,0.77,1.13
	l1.29,2.42h-1.23l-0.98-1.85c-0.38-0.72-0.67-1.21-0.86-1.46c-0.2-0.25-0.38-0.42-0.56-0.5c-0.18-0.09-0.44-0.13-0.77-0.13h-1.13
	v3.94H58.9z M59.87,38.87h2.1c0.46,0,0.81-0.06,1.04-0.17c0.24-0.11,0.43-0.28,0.56-0.52c0.14-0.23,0.21-0.51,0.21-0.82
	c0-0.45-0.13-0.8-0.4-1.06c-0.26-0.26-0.66-0.38-1.19-0.38h-2.34V38.87z"/>
<path d="M37.8,40.19v-1.04l3.13-0.01v3.29c-0.48,0.46-0.98,0.81-1.49,1.04c-0.51,0.23-1.04,0.35-1.58,0.35
	c-0.72,0-1.36-0.18-1.93-0.53c-0.56-0.35-1.01-0.87-1.34-1.56c-0.33-0.68-0.49-1.5-0.49-2.46c0-0.97,0.17-1.81,0.5-2.53
	c0.33-0.72,0.77-1.25,1.3-1.59c0.54-0.34,1.17-0.51,1.9-0.51c0.54,0,1.01,0.1,1.42,0.3c0.41,0.2,0.74,0.48,1,0.84
	c0.26,0.36,0.46,0.86,0.59,1.5l-0.88,0.29c-0.12-0.5-0.27-0.87-0.45-1.12c-0.18-0.25-0.42-0.44-0.71-0.58
	c-0.3-0.14-0.63-0.21-1-0.21c-0.54,0-1,0.13-1.39,0.38c-0.39,0.26-0.7,0.66-0.94,1.2c-0.23,0.54-0.35,1.2-0.35,1.98
	c0,1.19,0.25,2.08,0.76,2.67c0.51,0.59,1.16,0.89,1.97,0.89c0.38,0,0.78-0.09,1.18-0.27c0.4-0.18,0.72-0.4,0.96-0.65v-1.65H37.8z"/>
<rect x="73.87" y="33.6" class="st1" width="1.04" height="11.57"/>
<rect x="98.91" y="33.6" class="st1" width="1.04" height="11.57"/>
<rect x="122.69" y="33.6" class="st1" width="1.04" height="11.57"/>
<rect x="0" y="50.26" class="st3" width="137.83" height="10.76"/>
<path class="st4" d="M123.86,56.76h0.87c0.01,0.48,0.17,0.86,0.48,1.14c0.31,0.28,0.73,0.42,1.25,0.42c0.52,0,0.92-0.11,1.22-0.32
	c0.3-0.22,0.45-0.51,0.45-0.88c0-0.5-0.56-0.89-1.68-1.15c-0.07-0.02-0.12-0.03-0.15-0.03c-0.91-0.21-1.5-0.45-1.79-0.71
	c-0.29-0.26-0.44-0.63-0.44-1.11c0-0.59,0.22-1.06,0.65-1.42c0.43-0.36,1.01-0.54,1.73-0.54c0.74,0,1.32,0.19,1.74,0.56
	c0.42,0.37,0.64,0.89,0.64,1.54l-0.86,0c-0.03-0.44-0.18-0.78-0.46-1.01c-0.27-0.23-0.65-0.35-1.12-0.35c-0.44,0-0.8,0.1-1.07,0.29
	c-0.27,0.19-0.4,0.45-0.4,0.77c0,0.51,0.55,0.89,1.65,1.14c0.16,0.04,0.29,0.07,0.38,0.09l0.1,0.02c0.72,0.17,1.19,0.35,1.43,0.55
	c0.18,0.15,0.31,0.33,0.41,0.54c0.09,0.21,0.14,0.45,0.14,0.72c0,0.64-0.23,1.14-0.69,1.52c-0.46,0.38-1.08,0.57-1.87,0.57
	c-0.81,0-1.44-0.2-1.89-0.61C124.13,58.1,123.89,57.52,123.86,56.76 M117.44,58.94v-6.59h4.76v0.82h-3.86v1.97h3.56v0.77h-3.56v2.21
	h3.93v0.83H117.44z M114.27,58.94v-6.59h0.91v6.59H114.27z M108.49,58.94v-6.59h0.92v5.76h3.32v0.83H108.49z M105.33,58.94v-6.59
	h0.91v6.59H105.33z M97.64,53.32v5.62h-0.84v-6.59h1.3l1.65,5.05c0.05,0.14,0.08,0.25,0.11,0.33c0.02,0.08,0.04,0.15,0.05,0.21
	c0.02-0.11,0.05-0.21,0.07-0.29c0.02-0.09,0.05-0.17,0.08-0.25l1.71-5.05h1.3v6.59h-0.88v-5.62c-0.02,0.1-0.05,0.19-0.07,0.29
	c-0.03,0.1-0.06,0.19-0.09,0.29l-1.72,5.04h-0.85l-1.68-5.04c-0.03-0.08-0.06-0.17-0.08-0.27C97.69,53.53,97.66,53.43,97.64,53.32z
	 M89.36,58.94l2.48-6.59h1l2.49,6.59h-0.98l-0.71-1.97h-2.62l-0.71,1.97H89.36z M91.28,56.19h2.08l-1.03-2.91L91.28,56.19z
	 M84.27,58.94v-6.59h4.48v0.83h-3.57v1.98h3.12v0.81h-3.12v2.98H84.27z M74.95,58.94h-0.91v-2.64l-2.48-3.95h1.14l1.79,3.12
	l1.77-3.12h1.07l-2.38,3.89V58.94z M65.79,58.94v-6.59h2.46c0.4,0,0.7,0.02,0.91,0.06c0.21,0.04,0.39,0.1,0.56,0.19
	c0.27,0.15,0.48,0.36,0.62,0.65c0.15,0.29,0.22,0.62,0.22,1.01c0,0.37-0.07,0.69-0.22,0.97c-0.15,0.28-0.36,0.5-0.63,0.67
	c-0.16,0.1-0.35,0.16-0.56,0.2c-0.22,0.04-0.57,0.06-1.07,0.06H66.7v2.78H65.79z M66.7,55.36h1.52c0.53,0,0.9-0.08,1.11-0.25
	c0.21-0.17,0.31-0.45,0.31-0.86c0-0.39-0.1-0.67-0.31-0.84c-0.21-0.17-0.55-0.26-1.04-0.26H66.7V55.36z M59.15,58.94v-6.59h2.46
	c0.4,0,0.7,0.02,0.91,0.06c0.21,0.04,0.39,0.1,0.56,0.19c0.27,0.15,0.48,0.36,0.62,0.65c0.15,0.29,0.22,0.62,0.22,1.01
	c0,0.37-0.07,0.69-0.22,0.97c-0.15,0.28-0.36,0.5-0.63,0.67c-0.16,0.1-0.35,0.16-0.56,0.2c-0.22,0.04-0.57,0.06-1.07,0.06h-1.38
	v2.78H59.15z M60.05,55.36h1.52c0.53,0,0.9-0.08,1.11-0.25c0.21-0.17,0.31-0.45,0.31-0.86c0-0.39-0.1-0.67-0.31-0.84
	c-0.21-0.17-0.55-0.26-1.04-0.26h-1.59V55.36z M51.69,58.94l2.48-6.59h1l2.49,6.59h-0.98l-0.71-1.97h-2.63l-0.71,1.97H51.69z
	 M53.62,56.19h2.08l-1.03-2.91L53.62,56.19z M44.93,58.94v-6.59h0.91v2.71h3.46v-2.71h0.91v6.59H49.3v-3.09h-3.46v3.09H44.93z
	 M32.06,58.94v-6.59h2.54c0.93,0,1.64,0.27,2.13,0.82s0.74,1.34,0.74,2.38c0,1.07-0.26,1.9-0.77,2.5c-0.51,0.59-1.23,0.89-2.14,0.89
	H32.06z M34.52,53.1h-1.56v5.03h1.56c0.67,0,1.17-0.21,1.51-0.64c0.34-0.43,0.51-1.06,0.51-1.9c0-0.8-0.17-1.42-0.52-1.84
	C35.68,53.32,35.18,53.1,34.52,53.1z M26.29,58.94v-6.59h0.92v5.76h3.32v0.83H26.29z M23.13,58.94v-6.59h0.91v6.59H23.13z
	 M15.7,56.44v-4.09h0.91v4.1c0,0.62,0.14,1.08,0.41,1.37c0.28,0.29,0.7,0.44,1.28,0.44c0.57,0,1-0.15,1.28-0.45
	c0.28-0.3,0.42-0.76,0.42-1.36v-4.1h0.91v4.09c0,0.88-0.23,1.55-0.69,2c-0.46,0.45-1.14,0.68-2.03,0.68c-0.83,0-1.46-0.22-1.88-0.67
	C15.9,58,15.7,57.33,15.7,56.44z M9.7,58.14h1.84c0.46,0,0.81-0.1,1.05-0.3c0.24-0.2,0.36-0.5,0.36-0.88c0-0.38-0.12-0.66-0.36-0.84
	c-0.24-0.18-0.63-0.27-1.15-0.27H9.7V58.14z M9.7,55.11h1.59c0.47,0,0.81-0.08,1.03-0.25c0.22-0.17,0.33-0.43,0.33-0.78
	c0-0.33-0.1-0.58-0.32-0.74c-0.21-0.16-0.54-0.24-0.97-0.24H9.7V55.11z M8.79,58.94v-6.59h2.69c0.69,0,1.21,0.13,1.56,0.4
	c0.35,0.27,0.52,0.67,0.52,1.2c0,0.34-0.08,0.63-0.24,0.87c-0.16,0.24-0.4,0.43-0.72,0.55c0.4,0.07,0.71,0.25,0.94,0.53
	c0.22,0.28,0.34,0.63,0.34,1.06c0,0.6-0.2,1.08-0.61,1.44c-0.4,0.36-0.95,0.53-1.65,0.53H8.79z"/>
<path class="st5" d="M140.57,12.09c1.89,0,3.43,1.47,3.43,3.29c0,1.82-1.53,3.29-3.43,3.29c-1.89,0-3.43-1.47-3.43-3.29
	C137.15,13.56,138.68,12.09,140.57,12.09z"/>
<path d="M139.24,15.13h1.24c0.26,0,0.47-0.03,0.62-0.08c0.15-0.05,0.26-0.14,0.34-0.26c0.08-0.12,0.12-0.25,0.12-0.39
	c0-0.2-0.07-0.37-0.22-0.5c-0.15-0.13-0.38-0.2-0.7-0.2h-1.38V15.13z M138.66,17.53v-4.3h1.93c0.39,0,0.68,0.04,0.88,0.12
	c0.2,0.08,0.36,0.21,0.48,0.41c0.12,0.2,0.18,0.41,0.18,0.65c0,0.31-0.1,0.56-0.3,0.77c-0.2,0.21-0.51,0.34-0.92,0.4
	c0.15,0.07,0.27,0.14,0.35,0.21c0.17,0.15,0.33,0.34,0.48,0.57l0.75,1.17h-0.72l-0.58-0.89c-0.17-0.26-0.31-0.46-0.41-0.59
	c-0.11-0.14-0.21-0.23-0.29-0.29c-0.09-0.05-0.17-0.09-0.26-0.11c-0.06-0.01-0.17-0.02-0.32-0.02h-0.67v1.91H138.66z"/>
<path class="st4" d="M131.59,75.98l-0.1-0.78c0.19,0.05,0.34,0.08,0.48,0.08c0.19,0,0.34-0.03,0.45-0.09
	c0.11-0.06,0.21-0.15,0.28-0.26c0.05-0.08,0.14-0.29,0.26-0.63c0.02-0.05,0.04-0.12,0.08-0.21l-1.89-4.99h0.9l1.04,2.87
	c0.14,0.36,0.26,0.75,0.36,1.15c0.1-0.38,0.21-0.75,0.35-1.12l1.06-2.9h0.84l-1.88,5.06c-0.2,0.54-0.36,0.92-0.47,1.12
	c-0.15,0.28-0.32,0.48-0.52,0.61c-0.19,0.13-0.43,0.19-0.69,0.19C131.97,76.08,131.79,76.05,131.59,75.98 M125.97,74.07V69.1h0.76
	v0.71c0.36-0.54,0.89-0.81,1.58-0.81c0.3,0,0.57,0.05,0.83,0.16c0.25,0.11,0.44,0.25,0.56,0.42c0.12,0.17,0.21,0.38,0.26,0.62
	c0.03,0.16,0.05,0.43,0.05,0.82v3.05h-0.84v-3.02c0-0.34-0.03-0.6-0.1-0.77c-0.07-0.17-0.18-0.3-0.35-0.41
	c-0.17-0.1-0.36-0.15-0.59-0.15c-0.36,0-0.67,0.11-0.93,0.34c-0.26,0.23-0.39,0.66-0.39,1.29v2.71H125.97z M123.48,71.58
	c-0.31,0.12-0.77,0.23-1.38,0.32c-0.35,0.05-0.59,0.11-0.74,0.17c-0.14,0.06-0.25,0.15-0.33,0.27c-0.08,0.12-0.12,0.25-0.12,0.4
	c0,0.22,0.08,0.41,0.26,0.56c0.17,0.15,0.42,0.22,0.75,0.22c0.32,0,0.61-0.07,0.87-0.21c0.25-0.14,0.44-0.33,0.56-0.58
	c0.09-0.19,0.14-0.47,0.14-0.84L123.48,71.58z M123.55,73.45c-0.31,0.27-0.61,0.45-0.9,0.56c-0.29,0.11-0.6,0.16-0.93,0.16
	c-0.55,0-0.97-0.13-1.26-0.4c-0.29-0.27-0.44-0.61-0.44-1.02c0-0.24,0.06-0.46,0.17-0.67c0.11-0.2,0.26-0.36,0.44-0.48
	c0.18-0.12,0.38-0.21,0.61-0.28c0.17-0.04,0.42-0.08,0.75-0.13c0.68-0.08,1.18-0.18,1.5-0.29c0-0.12,0-0.19,0-0.22
	c0-0.34-0.08-0.58-0.24-0.72c-0.22-0.19-0.54-0.28-0.96-0.28c-0.4,0-0.69,0.07-0.88,0.21c-0.19,0.14-0.33,0.38-0.42,0.74l-0.82-0.11
	c0.08-0.35,0.2-0.64,0.37-0.86c0.17-0.22,0.42-0.38,0.75-0.5c0.32-0.12,0.7-0.18,1.13-0.18c0.42,0,0.77,0.05,1.04,0.15
	c0.26,0.1,0.46,0.23,0.59,0.38c0.12,0.15,0.21,0.34,0.26,0.57c0.03,0.14,0.04,0.4,0.04,0.77v1.12c0,0.78,0.02,1.27,0.05,1.48
	c0.03,0.21,0.1,0.41,0.21,0.6h-0.88C123.63,73.89,123.57,73.69,123.55,73.45z M115.4,71.62c0,0.64,0.13,1.11,0.39,1.41
	c0.26,0.3,0.57,0.46,0.94,0.46c0.37,0,0.69-0.16,0.96-0.47c0.27-0.32,0.4-0.8,0.4-1.47c0-0.63-0.13-1.1-0.39-1.42
	c-0.26-0.31-0.57-0.47-0.93-0.47c-0.36,0-0.67,0.17-0.95,0.5C115.54,70.49,115.4,70.98,115.4,71.62z M114.64,75.98V69.1h0.77v0.65
	c0.18-0.25,0.39-0.44,0.61-0.57c0.23-0.13,0.5-0.19,0.83-0.19c0.42,0,0.8,0.11,1.12,0.33c0.32,0.22,0.57,0.53,0.73,0.92
	c0.16,0.4,0.25,0.83,0.25,1.31c0,0.51-0.09,0.96-0.27,1.37c-0.18,0.41-0.45,0.72-0.8,0.93c-0.35,0.22-0.71,0.32-1.1,0.32
	c-0.28,0-0.53-0.06-0.76-0.18c-0.22-0.12-0.41-0.27-0.55-0.45v2.43H114.64z M106.32,74.07V69.1h0.76v0.7
	c0.15-0.24,0.36-0.44,0.62-0.59c0.26-0.15,0.55-0.22,0.88-0.22c0.37,0,0.67,0.08,0.9,0.23c0.23,0.15,0.4,0.37,0.5,0.64
	c0.4-0.58,0.91-0.87,1.54-0.87c0.49,0,0.88,0.14,1.14,0.41c0.27,0.27,0.4,0.69,0.4,1.26v3.41h-0.84v-3.13
	c0-0.34-0.03-0.58-0.08-0.73c-0.05-0.15-0.15-0.27-0.3-0.36c-0.14-0.09-0.31-0.14-0.51-0.14c-0.35,0-0.64,0.12-0.87,0.35
	c-0.23,0.23-0.35,0.61-0.35,1.12v2.89h-0.84v-3.23c0-0.37-0.07-0.65-0.21-0.84c-0.14-0.19-0.36-0.28-0.67-0.28
	c-0.24,0-0.46,0.06-0.66,0.19c-0.2,0.12-0.35,0.31-0.44,0.55c-0.09,0.24-0.13,0.59-0.13,1.04v2.58H106.32z M101.2,71.59
	c0,0.64,0.14,1.11,0.42,1.43c0.28,0.32,0.63,0.47,1.05,0.47c0.42,0,0.77-0.16,1.05-0.48c0.28-0.32,0.42-0.8,0.42-1.45
	c0-0.61-0.14-1.08-0.42-1.39c-0.28-0.32-0.63-0.47-1.04-0.47c-0.42,0-0.77,0.16-1.05,0.47C101.34,70.48,101.2,70.95,101.2,71.59z
	 M100.34,71.59c0-0.92,0.26-1.6,0.77-2.04c0.43-0.37,0.95-0.55,1.56-0.55c0.68,0,1.24,0.22,1.67,0.67c0.43,0.45,0.65,1.06,0.65,1.85
	c0,0.64-0.1,1.14-0.29,1.51c-0.19,0.37-0.47,0.65-0.84,0.85c-0.37,0.2-0.77,0.3-1.2,0.3c-0.7,0-1.26-0.22-1.69-0.67
	C100.56,73.06,100.34,72.42,100.34,71.59z M98.78,72.25l0.82,0.11c-0.09,0.57-0.32,1.01-0.69,1.33c-0.37,0.32-0.83,0.48-1.37,0.48
	c-0.68,0-1.22-0.22-1.64-0.67c-0.41-0.44-0.62-1.08-0.62-1.91c0-0.54,0.09-1,0.27-1.41c0.18-0.4,0.45-0.7,0.81-0.9
	c0.36-0.2,0.76-0.3,1.18-0.3c0.54,0,0.98,0.14,1.32,0.41c0.34,0.27,0.56,0.66,0.66,1.16l-0.81,0.12c-0.08-0.33-0.22-0.58-0.42-0.75
	c-0.2-0.17-0.44-0.25-0.72-0.25c-0.42,0-0.77,0.15-1.04,0.46c-0.26,0.3-0.4,0.78-0.4,1.44c0,0.67,0.13,1.15,0.38,1.45
	c0.26,0.3,0.59,0.45,1,0.45c0.33,0,0.61-0.1,0.83-0.3C98.58,72.98,98.72,72.67,98.78,72.25z M84.08,72.27l0.88-0.07
	c0.07,0.43,0.22,0.75,0.45,0.97c0.24,0.22,0.53,0.32,0.87,0.32c0.41,0,0.75-0.15,1.03-0.46c0.28-0.31,0.42-0.71,0.42-1.22
	c0-0.48-0.13-0.86-0.4-1.14c-0.27-0.28-0.62-0.42-1.06-0.42c-0.27,0-0.52,0.06-0.73,0.19c-0.22,0.12-0.38,0.29-0.51,0.48l-0.8-0.11
	l0.66-3.53h3.4v0.8h-2.73l-0.37,1.85c0.41-0.29,0.84-0.43,1.29-0.43c0.6,0,1.1,0.21,1.51,0.62c0.41,0.41,0.62,0.95,0.62,1.6
	c0,0.62-0.18,1.16-0.54,1.61c-0.44,0.56-1.04,0.83-1.8,0.83c-0.62,0-1.13-0.18-1.52-0.53C84.36,73.31,84.14,72.85,84.08,72.27z
	 M81.58,74.07h-0.84V68.7c-0.2,0.2-0.47,0.39-0.8,0.58c-0.33,0.19-0.63,0.34-0.89,0.43V68.9c0.47-0.22,0.88-0.49,1.24-0.8
	c0.35-0.31,0.6-0.62,0.75-0.92h0.54V74.07z M73.61,70.69c0,1.13,0.13,1.88,0.39,2.25c0.26,0.37,0.59,0.56,0.98,0.56
	c0.39,0,0.71-0.19,0.98-0.56c0.26-0.37,0.39-1.12,0.39-2.25c0-1.13-0.13-1.88-0.39-2.25c-0.26-0.37-0.59-0.56-0.98-0.56
	c-0.39,0-0.7,0.16-0.93,0.49C73.76,68.79,73.61,69.56,73.61,70.69z M72.75,70.69c0-0.81,0.08-1.46,0.25-1.96
	c0.17-0.5,0.42-0.88,0.74-1.14c0.33-0.27,0.74-0.4,1.24-0.4c0.37,0,0.69,0.07,0.97,0.22c0.28,0.15,0.51,0.36,0.69,0.64
	c0.18,0.28,0.32,0.62,0.42,1.02c0.1,0.4,0.15,0.94,0.15,1.62c0,0.8-0.08,1.46-0.25,1.95c-0.16,0.5-0.41,0.88-0.74,1.15
	c-0.33,0.27-0.74,0.4-1.24,0.4c-0.66,0-1.18-0.23-1.56-0.71C72.98,72.91,72.75,71.98,72.75,70.69z M71.5,73.27v0.8h-4.54
	c-0.01-0.2,0.03-0.4,0.1-0.59c0.12-0.31,0.3-0.61,0.56-0.91c0.26-0.3,0.62-0.64,1.1-1.03c0.74-0.61,1.25-1.1,1.51-1.45
	c0.26-0.36,0.4-0.7,0.4-1.01c0-0.33-0.12-0.62-0.36-0.84c-0.24-0.23-0.55-0.34-0.94-0.34c-0.41,0-0.73,0.12-0.98,0.36
	c-0.24,0.24-0.37,0.58-0.37,1.01l-0.86-0.09c0.06-0.65,0.28-1.14,0.67-1.48c0.39-0.34,0.91-0.51,1.56-0.51
	c0.66,0,1.18,0.18,1.56,0.55c0.38,0.37,0.58,0.82,0.58,1.36c0,0.27-0.06,0.54-0.17,0.81c-0.11,0.27-0.3,0.55-0.56,0.84
	c-0.26,0.29-0.69,0.7-1.3,1.21c-0.51,0.42-0.83,0.71-0.98,0.86c-0.14,0.15-0.26,0.3-0.36,0.46H71.5z M64.55,74.07v-0.96h0.96v0.96
	H64.55z M64.55,70.06V69.1h0.96v0.96H64.55z M61.59,74.07h-0.84V68.7c-0.2,0.2-0.47,0.39-0.8,0.58c-0.33,0.19-0.63,0.34-0.89,0.43
	V68.9c0.47-0.22,0.88-0.49,1.24-0.8c0.35-0.31,0.6-0.62,0.75-0.92h0.54V74.07z M53.62,70.69c0,1.13,0.13,1.88,0.39,2.25
	c0.26,0.37,0.59,0.56,0.98,0.56c0.39,0,0.71-0.19,0.98-0.56c0.26-0.37,0.39-1.12,0.39-2.25c0-1.13-0.13-1.88-0.39-2.25
	c-0.26-0.37-0.59-0.56-0.99-0.56c-0.39,0-0.7,0.16-0.93,0.49C53.77,68.79,53.62,69.56,53.62,70.69z M52.76,70.69
	c0-0.81,0.08-1.46,0.25-1.96c0.17-0.5,0.41-0.88,0.74-1.14c0.33-0.27,0.74-0.4,1.24-0.4c0.37,0,0.69,0.07,0.97,0.22
	c0.28,0.15,0.51,0.36,0.69,0.64c0.18,0.28,0.32,0.62,0.42,1.02c0.1,0.4,0.15,0.94,0.15,1.62c0,0.8-0.08,1.46-0.25,1.95
	c-0.16,0.5-0.41,0.88-0.74,1.15c-0.33,0.27-0.74,0.4-1.24,0.4c-0.66,0-1.18-0.23-1.56-0.71C52.99,72.91,52.76,71.98,52.76,70.69z
	 M47.96,70.69c0,1.13,0.13,1.88,0.39,2.25c0.26,0.37,0.59,0.56,0.98,0.56s0.71-0.19,0.98-0.56c0.26-0.37,0.39-1.12,0.39-2.25
	c0-1.13-0.13-1.88-0.39-2.25c-0.26-0.37-0.59-0.56-0.98-0.56c-0.39,0-0.7,0.16-0.93,0.49C48.1,68.79,47.96,69.56,47.96,70.69z
	 M47.1,70.69c0-0.81,0.08-1.46,0.25-1.96c0.17-0.5,0.42-0.88,0.74-1.14c0.33-0.27,0.74-0.4,1.24-0.4c0.37,0,0.69,0.07,0.97,0.22
	c0.28,0.15,0.51,0.36,0.69,0.64c0.18,0.28,0.32,0.62,0.42,1.02c0.1,0.4,0.15,0.94,0.15,1.62c0,0.8-0.08,1.46-0.25,1.95
	c-0.16,0.5-0.41,0.88-0.74,1.15c-0.33,0.27-0.74,0.4-1.24,0.4c-0.66,0-1.18-0.23-1.56-0.71C47.32,72.91,47.1,71.98,47.1,70.69z
	 M45,69.46c0-0.48-0.13-0.87-0.38-1.15c-0.25-0.28-0.56-0.42-0.93-0.42c-0.38,0-0.7,0.15-0.98,0.46c-0.28,0.31-0.41,0.7-0.41,1.19
	c0,0.44,0.13,0.79,0.39,1.06c0.26,0.27,0.59,0.41,0.98,0.41c0.39,0,0.71-0.14,0.96-0.41C44.87,70.32,45,69.94,45,69.46z
	 M41.56,72.48l0.8-0.07c0.07,0.38,0.2,0.65,0.39,0.83c0.19,0.17,0.44,0.26,0.74,0.26c0.26,0,0.49-0.06,0.68-0.18
	c0.2-0.12,0.36-0.28,0.48-0.48c0.12-0.2,0.23-0.47,0.31-0.8c0.08-0.34,0.13-0.68,0.13-1.03c0-0.04,0-0.09,0-0.17
	c-0.17,0.27-0.4,0.49-0.69,0.65c-0.29,0.17-0.61,0.25-0.95,0.25c-0.57,0-1.05-0.21-1.44-0.62c-0.39-0.41-0.59-0.95-0.59-1.63
	c0-0.7,0.2-1.25,0.61-1.68c0.41-0.42,0.92-0.64,1.54-0.64c0.44,0,0.85,0.12,1.22,0.36c0.37,0.24,0.65,0.58,0.84,1.03
	c0.19,0.44,0.29,1.09,0.29,1.93c0,0.88-0.09,1.57-0.28,2.09c-0.19,0.52-0.47,0.91-0.85,1.19c-0.38,0.27-0.81,0.41-1.32,0.41
	c-0.54,0-0.97-0.15-1.31-0.45C41.83,73.44,41.63,73.02,41.56,72.48z M29.08,70.75c0,0.83,0.22,1.48,0.67,1.95
	c0.44,0.47,1,0.71,1.67,0.71c0.68,0,1.24-0.24,1.69-0.72c0.44-0.48,0.66-1.16,0.66-2.04c0-0.56-0.09-1.04-0.28-1.46
	c-0.19-0.42-0.46-0.74-0.83-0.97c-0.36-0.23-0.77-0.34-1.22-0.34c-0.64,0-1.19,0.22-1.66,0.66C29.32,68.99,29.08,69.72,29.08,70.75z
	 M28.15,70.73c0-1.14,0.31-2.03,0.92-2.67c0.61-0.64,1.4-0.96,2.37-0.96c0.63,0,1.2,0.15,1.71,0.45c0.51,0.3,0.9,0.72,1.16,1.26
	c0.27,0.54,0.4,1.15,0.4,1.84c0,0.69-0.14,1.32-0.42,1.87c-0.28,0.55-0.68,0.96-1.19,1.25c-0.52,0.28-1.07,0.42-1.67,0.42
	c-0.65,0-1.22-0.16-1.73-0.47c-0.51-0.31-0.89-0.74-1.16-1.28C28.28,71.91,28.15,71.34,28.15,70.73z M21.4,71.87l0.85-0.08
	c0.04,0.34,0.13,0.63,0.28,0.85c0.15,0.22,0.38,0.4,0.69,0.54c0.31,0.14,0.66,0.2,1.05,0.2c0.35,0,0.65-0.05,0.92-0.16
	c0.27-0.1,0.46-0.25,0.59-0.43c0.13-0.18,0.19-0.38,0.19-0.59c0-0.21-0.06-0.4-0.19-0.56c-0.12-0.16-0.33-0.29-0.62-0.4
	c-0.18-0.07-0.59-0.18-1.22-0.33c-0.63-0.15-1.07-0.29-1.32-0.43c-0.33-0.17-0.57-0.39-0.73-0.64c-0.16-0.25-0.24-0.54-0.24-0.85
	c0-0.35,0.1-0.67,0.3-0.97c0.2-0.3,0.48-0.53,0.86-0.69c0.38-0.16,0.8-0.24,1.26-0.24c0.51,0,0.96,0.08,1.34,0.25
	c0.39,0.16,0.69,0.4,0.9,0.72c0.21,0.32,0.32,0.68,0.34,1.08l-0.87,0.07c-0.05-0.43-0.2-0.76-0.47-0.98
	c-0.27-0.22-0.67-0.33-1.2-0.33c-0.55,0-0.95,0.1-1.2,0.3c-0.25,0.2-0.38,0.44-0.38,0.73c0,0.25,0.09,0.45,0.27,0.61
	c0.18,0.16,0.63,0.32,1.37,0.49c0.74,0.17,1.24,0.31,1.52,0.44c0.4,0.18,0.69,0.42,0.88,0.7c0.19,0.28,0.28,0.6,0.28,0.97
	c0,0.37-0.1,0.71-0.31,1.03c-0.21,0.32-0.51,0.57-0.9,0.75c-0.39,0.18-0.83,0.27-1.32,0.27c-0.62,0-1.14-0.09-1.56-0.27
	c-0.42-0.18-0.75-0.45-0.99-0.82C21.54,72.74,21.41,72.33,21.4,71.87z M18.85,74.07v-6.86h0.91v6.86H18.85z M7.37,74.07V69.1h0.76
	v0.71c0.36-0.54,0.89-0.81,1.58-0.81c0.3,0,0.57,0.05,0.83,0.16c0.25,0.11,0.44,0.25,0.56,0.42c0.12,0.17,0.21,0.38,0.26,0.62
	c0.03,0.16,0.05,0.43,0.05,0.82v3.05h-0.84v-3.02c0-0.34-0.03-0.6-0.1-0.77c-0.07-0.17-0.18-0.3-0.35-0.41
	c-0.17-0.1-0.36-0.15-0.59-0.15c-0.36,0-0.67,0.11-0.93,0.34c-0.26,0.23-0.39,0.66-0.39,1.29v2.71H7.37z M1.97,71.26h2.34l-0.72-1.9
	c-0.22-0.58-0.38-1.06-0.49-1.43c-0.09,0.45-0.22,0.89-0.38,1.32L1.97,71.26z M0,74.07l2.63-6.86h1l2.79,6.86H5.39L4.6,71.99H1.71
	l-0.74,2.08H0z"/>
</svg>
