<?xml version="1.0" encoding="utf-8"?>
<!-- Generator: Adobe Illustrator 23.0.3, SVG Export Plug-In . SVG Version: 6.00 Build 0)  -->
<svg version="1.1" id="Layer_1" xmlns="http://www.w3.org/2000/svg" xmlns:xlink="http://www.w3.org/1999/xlink" x="0px" y="0px"
	 viewBox="0 0 150 60" style="enable-background:new 0 0 150 60;" xml:space="preserve">
<style type="text/css">
	.st0{fill-rule:evenodd;clip-rule:evenodd;fill:#90CEA6;}
	.st1{fill-rule:evenodd;clip-rule:evenodd;fill:#B24637;}
	.st2{fill:#90CEA6;}
	.st3{fill:#B24637;}
	.st4{fill:#FFFFFF;}
	.st5{fill:#1C864D;}
</style>
<g>
	<rect x="6.25" y="42.87" class="st0" width="112.25" height="1.01"/>
	<rect x="6.25" y="38.15" class="st0" width="112.25" height="1.01"/>
	<rect x="6.25" y="40.51" class="st1" width="107.23" height="1.01"/>
	<path class="st2" d="M111.35,42.57c4.47-1.68,10.91-4.33,16.5-7.55c7.27-4.47,13.7-9.09,15.52-15.1c1.4-5.17-0.84-8.95-7.13-8.95
		c-4.61,0-9.65,2.1-13.7,5.17c-3.22,2.52-6.15,5.73-6.85,8.81c-0.42,1.96,0.14,4.19,3.22,4.61c1.12,0.14,2.52-0.14,3.22-0.42
		c0.42-0.14,1.12-0.56,0.98-0.84c-0.14-0.28-0.42-0.14-0.98,0c-2.66,0.7-4.33-0.84-3.64-4.19c0.56-2.52,2.8-5.17,4.89-6.85
		c2.94-2.38,6.43-3.64,9.65-3.64c2.8,0,4.47,2.24,3.5,5.45c-1.96,6.15-11.6,14.4-20.83,19.85c-5.17,3.08-10.91,5.73-13,7.13
		c-1.12,0.7-2.1,1.26-2.38,2.1c-0.28,0.7-0.14,0.98,0.28,0.84c0.56-0.14,2.1-1.26,3.08-1.82c1.12-0.7,3.08-1.4,4.47-1.4
		c2.24,0,3.78,0.28,5.73,1.26c2.24,1.12,5.31,1.96,7.83,1.96c5.73,0,10.49-4.89,14.12-9.65c0.14-0.14,0.56-0.84,0.14-1.12
		c-0.28-0.14-0.7,0.28-1.12,0.7c-4.05,4.33-6.57,5.31-9.93,5.31c-2.24,0-5.59-1.82-8.81-2.1C113.72,42.01,113.02,42.15,111.35,42.57
		"/>
	<path class="st3" d="M67.4,35.45h2.17v-6.22h2.05v-1.78h-6.28v1.78h2.06V35.45z M61.24,32.42l0.82-3.32h0.14l0.79,3.32H61.24z
		 M58.18,35.45h2.3l0.36-1.4h2.52l0.36,1.4h2.3l-2.25-8.01h-3.3L58.18,35.45z M46.89,27.44l1.23,8.01h3.1l1.01-5.43l0.98,5.43h3.06
		l1.33-8.01h-2.16l-0.84,6.14l-1.15-6.14h-2.4l-1.24,6.14l-0.76-6.14H46.89z M38.63,35.45h2.15v-3.13h2.8v3.13h2.15v-8.01h-2.15v3
		h-2.8v-3h-2.15V35.45z M30.64,32.97v0.55c0,0.48,0.09,0.86,0.28,1.16c0.19,0.3,0.48,0.52,0.88,0.66c0.39,0.14,0.9,0.21,1.51,0.21
		h1.75c0.47,0,0.88-0.1,1.22-0.28c0.34-0.18,0.6-0.44,0.79-0.76c0.18-0.33,0.28-0.71,0.28-1.15v-0.77c0-0.58-0.17-1.03-0.51-1.35
		c-0.34-0.32-0.85-0.52-1.53-0.6l-1.59-0.18c-0.19-0.02-0.35-0.04-0.48-0.07c-0.13-0.03-0.23-0.08-0.29-0.15
		c-0.07-0.07-0.1-0.18-0.1-0.32v-0.33c0-0.14,0.03-0.25,0.09-0.33c0.06-0.08,0.16-0.13,0.29-0.17c0.13-0.03,0.3-0.05,0.51-0.04h0.5
		c0.19,0,0.35,0.02,0.46,0.06c0.11,0.04,0.2,0.11,0.25,0.2c0.05,0.09,0.08,0.22,0.07,0.38v0.09h2.06v-0.55
		c0-0.4-0.09-0.74-0.28-1.02c-0.19-0.28-0.46-0.49-0.83-0.64c-0.37-0.15-0.82-0.22-1.36-0.22h-1.29c-0.29,0-0.55,0.01-0.79,0.03
		c-0.24,0.02-0.45,0.06-0.64,0.13c-0.19,0.06-0.36,0.16-0.51,0.29c-0.23,0.19-0.4,0.43-0.52,0.72c-0.12,0.29-0.18,0.62-0.18,1V30
		c0,0.44,0.06,0.81,0.2,1.1c0.13,0.29,0.34,0.52,0.61,0.69c0.28,0.16,0.63,0.27,1.06,0.32l1.74,0.19c0.19,0.02,0.36,0.05,0.48,0.08
		c0.13,0.03,0.22,0.09,0.28,0.17c0.06,0.08,0.09,0.19,0.09,0.35v0.35c0,0.15-0.03,0.27-0.09,0.35c-0.06,0.09-0.15,0.15-0.28,0.19
		c-0.13,0.04-0.3,0.06-0.51,0.05h-0.54c-0.26,0-0.47-0.02-0.62-0.07c-0.15-0.05-0.26-0.13-0.33-0.25c-0.07-0.12-0.1-0.27-0.1-0.46
		v-0.08H30.64z M25.4,32.42l0.82-3.32h0.14l0.79,3.32H25.4z M22.34,35.45h2.3l0.36-1.4h2.52l0.36,1.4h2.3l-2.25-8.01h-3.3
		L22.34,35.45z M14.22,35.45h2.15v-3.13h2.8v3.13h2.15v-8.01h-2.15v3h-2.8v-3h-2.15V35.45z M6.23,32.97v0.55
		c0,0.48,0.09,0.86,0.28,1.16C6.71,34.98,7,35.2,7.4,35.34c0.39,0.14,0.9,0.21,1.51,0.21h1.75c0.47,0,0.88-0.1,1.22-0.28
		c0.34-0.18,0.6-0.44,0.79-0.76c0.18-0.33,0.28-0.71,0.28-1.15v-0.77c0-0.58-0.17-1.03-0.51-1.35c-0.34-0.32-0.85-0.52-1.53-0.6
		l-1.59-0.18c-0.19-0.02-0.35-0.04-0.48-0.07c-0.13-0.03-0.23-0.08-0.29-0.15c-0.07-0.07-0.1-0.18-0.1-0.32v-0.33
		c0-0.14,0.03-0.25,0.09-0.33c0.06-0.08,0.16-0.13,0.29-0.17c0.13-0.03,0.3-0.05,0.51-0.04h0.5c0.19,0,0.35,0.02,0.46,0.06
		c0.11,0.04,0.2,0.11,0.25,0.2c0.05,0.09,0.08,0.22,0.07,0.38v0.09h2.06v-0.55c0-0.4-0.09-0.74-0.28-1.02
		c-0.19-0.28-0.46-0.49-0.83-0.64c-0.37-0.15-0.82-0.22-1.36-0.22H8.92c-0.29,0-0.55,0.01-0.79,0.03C7.9,27.39,7.69,27.43,7.5,27.5
		c-0.19,0.06-0.36,0.16-0.51,0.29c-0.23,0.19-0.4,0.43-0.52,0.72c-0.12,0.29-0.18,0.62-0.18,1V30c0,0.44,0.06,0.81,0.2,1.1
		c0.13,0.29,0.34,0.52,0.61,0.69c0.28,0.16,0.63,0.27,1.06,0.32l1.74,0.19c0.19,0.02,0.36,0.05,0.48,0.08
		c0.13,0.03,0.22,0.09,0.28,0.17c0.06,0.08,0.09,0.19,0.09,0.35v0.35c0,0.15-0.03,0.27-0.09,0.35c-0.06,0.09-0.15,0.15-0.28,0.19
		c-0.13,0.04-0.3,0.06-0.51,0.05H9.34c-0.26,0-0.47-0.02-0.62-0.07c-0.15-0.05-0.26-0.13-0.33-0.25c-0.07-0.12-0.1-0.27-0.1-0.46
		v-0.08H6.23z"/>
	<path class="st4" d="M110.55,32.68c0.15,1.92,0.54,3.35,1.16,4.31c0.62,0.96,1.44,1.44,2.46,1.44c0.21,0,0.46-0.06,0.77-0.18
		c0.31-0.12,0.7-0.29,1.16-0.52c0.46-0.23,1.02-0.51,1.68-0.84c0.17-0.08,0.32-0.2,0.45-0.34c0.13-0.14,0.24-0.3,0.31-0.45
		c0.08-0.16,0.12-0.29,0.12-0.41c0-0.19-0.06-0.34-0.17-0.46c-0.11-0.12-0.24-0.19-0.38-0.19c-0.14,0-0.26,0.05-0.34,0.13
		c-0.08,0.08-0.18,0.17-0.27,0.28c-0.1,0.1-0.24,0.2-0.42,0.28c-0.18,0.08-0.45,0.12-0.79,0.13c-0.36,0-0.71-0.08-1.05-0.23
		c-0.34-0.15-0.66-0.37-0.94-0.66c-0.29-0.29-0.54-0.65-0.76-1.07c-0.14-0.28-0.23-0.54-0.28-0.79c-0.05-0.24-0.09-0.47-0.11-0.67
		c-0.02-0.21-0.04-0.39-0.06-0.56c-0.03-0.15-0.07-0.26-0.15-0.34c-0.07-0.08-0.18-0.14-0.31-0.17c-0.14-0.04-0.31-0.07-0.53-0.09
		c0.65-0.51,1.2-0.87,1.66-1.11c0.46-0.23,0.8-0.34,1.04-0.34c0.2,0,0.37,0.07,0.5,0.2c0.13,0.13,0.2,0.3,0.21,0.51
		c0,0.19-0.06,0.37-0.16,0.54c-0.1,0.17-0.23,0.32-0.38,0.47c-0.15,0.15-0.3,0.29-0.45,0.44c-0.15,0.14-0.28,0.28-0.38,0.43
		c-0.1,0.15-0.16,0.3-0.16,0.46c0,0.23,0.07,0.4,0.19,0.53c0.12,0.13,0.3,0.2,0.52,0.2c0.22,0,0.4-0.07,0.55-0.19
		c0.14-0.12,0.28-0.28,0.4-0.46c0.12-0.19,0.25-0.38,0.39-0.59c0.14-0.2,0.32-0.38,0.52-0.54c0.18-0.13,0.39-0.26,0.62-0.41
		c0.23-0.14,0.45-0.31,0.66-0.52c0.21-0.2,0.39-0.45,0.53-0.76c0.14-0.3,0.21-0.68,0.21-1.13c0-0.39-0.07-0.73-0.18-1.01
		c-0.12-0.28-0.28-0.49-0.49-0.64c-0.21-0.14-0.43-0.22-0.69-0.22c-0.13,0-0.26,0.02-0.4,0.06c-0.13,0.04-0.27,0.1-0.42,0.18
		c-0.38,0.06-0.76,0.19-1.12,0.39c-0.37,0.2-0.74,0.44-1.12,0.74c-0.38,0.29-0.8,0.62-1.24,0.98c-0.45,0.35-0.94,0.72-1.48,1.1
		c0.96-1.96,1.78-3.62,2.47-4.97c0.69-1.35,1.22-2.4,1.6-3.16c0.38-0.76,0.56-1.25,0.57-1.45c0-0.11-0.04-0.23-0.1-0.35
		c-0.07-0.11-0.15-0.22-0.24-0.33c-0.09-0.1-0.17-0.2-0.24-0.28c-0.07-0.08-0.1-0.14-0.11-0.19c0-0.02-0.03-0.04-0.1-0.07
		c-0.06-0.03-0.12-0.05-0.19-0.06c-0.06,0-0.18,0.04-0.36,0.12c-0.17,0.08-0.38,0.18-0.62,0.31c-0.23,0.13-0.47,0.28-0.71,0.45
		c-0.24,0.17-0.45,0.34-0.65,0.52c-0.19,0.17-0.33,0.35-0.42,0.52c-0.72,1.43-1.43,3.02-2.15,4.77c-0.72,1.74-1.45,3.62-2.21,5.65
		c-0.66,1.76-1.15,3.12-1.49,4.08c-0.34,0.96-0.51,1.53-0.51,1.72c0,0.2,0.06,0.35,0.17,0.46c0.11,0.11,0.27,0.17,0.46,0.17
		c0.03,0,0.11-0.03,0.23-0.09c0.13-0.05,0.27-0.13,0.45-0.21c0.17-0.09,0.35-0.17,0.52-0.27c0.17-0.09,0.32-0.17,0.45-0.25
		s0.21-0.14,0.24-0.17c0.16-0.2,0.4-0.7,0.73-1.49C109.59,35.17,110.02,34.07,110.55,32.68"/>
	<path class="st5" d="M110.26,33.15c0.15,1.92,0.54,3.35,1.16,4.31c0.62,0.96,1.44,1.44,2.46,1.44c0.21,0,0.46-0.06,0.77-0.18
		c0.31-0.12,0.7-0.29,1.16-0.52c0.46-0.23,1.02-0.51,1.68-0.84c0.17-0.08,0.32-0.2,0.45-0.34c0.13-0.14,0.24-0.3,0.31-0.45
		c0.08-0.16,0.12-0.29,0.12-0.41c0-0.19-0.06-0.34-0.17-0.46c-0.11-0.12-0.24-0.19-0.38-0.19c-0.14,0-0.26,0.05-0.34,0.13
		c-0.08,0.08-0.18,0.17-0.27,0.28c-0.1,0.1-0.24,0.2-0.42,0.28c-0.18,0.08-0.45,0.12-0.79,0.13c-0.36,0-0.71-0.08-1.05-0.23
		c-0.34-0.15-0.66-0.37-0.94-0.66c-0.29-0.29-0.54-0.65-0.76-1.07c-0.14-0.28-0.23-0.54-0.28-0.79c-0.05-0.25-0.09-0.47-0.11-0.67
		c-0.02-0.21-0.03-0.39-0.06-0.56c-0.03-0.15-0.07-0.26-0.15-0.34c-0.07-0.08-0.18-0.14-0.31-0.17c-0.14-0.04-0.31-0.07-0.53-0.09
		c0.65-0.51,1.2-0.87,1.66-1.11c0.46-0.23,0.8-0.34,1.04-0.34c0.2,0,0.37,0.07,0.5,0.2c0.13,0.13,0.2,0.3,0.21,0.51
		c0,0.19-0.06,0.37-0.16,0.54c-0.1,0.17-0.23,0.32-0.38,0.47c-0.15,0.15-0.3,0.29-0.45,0.44c-0.15,0.14-0.28,0.28-0.38,0.43
		c-0.1,0.15-0.16,0.3-0.16,0.46c0,0.23,0.07,0.4,0.19,0.53c0.12,0.13,0.3,0.2,0.52,0.2c0.22,0,0.4-0.07,0.55-0.19
		c0.14-0.12,0.28-0.28,0.4-0.46c0.12-0.19,0.25-0.38,0.39-0.59c0.14-0.2,0.31-0.38,0.52-0.54c0.18-0.13,0.39-0.26,0.62-0.41
		c0.23-0.14,0.45-0.31,0.66-0.52c0.21-0.2,0.39-0.45,0.53-0.76c0.14-0.3,0.21-0.68,0.21-1.13c0-0.39-0.07-0.73-0.18-1.01
		c-0.12-0.28-0.28-0.49-0.49-0.64c-0.21-0.14-0.43-0.22-0.69-0.22c-0.13,0-0.26,0.02-0.4,0.06c-0.13,0.04-0.27,0.1-0.42,0.18
		c-0.38,0.06-0.76,0.19-1.12,0.39c-0.37,0.2-0.74,0.44-1.12,0.74c-0.38,0.29-0.8,0.62-1.24,0.98c-0.45,0.35-0.94,0.72-1.48,1.1
		c0.96-1.96,1.78-3.62,2.47-4.97c0.69-1.35,1.22-2.4,1.6-3.16c0.38-0.76,0.56-1.25,0.57-1.45c0-0.11-0.04-0.23-0.1-0.35
		c-0.07-0.11-0.15-0.22-0.24-0.33c-0.09-0.1-0.17-0.2-0.24-0.28c-0.07-0.08-0.1-0.14-0.11-0.19c0-0.02-0.03-0.04-0.1-0.07
		c-0.06-0.04-0.12-0.05-0.19-0.06c-0.06,0-0.18,0.04-0.36,0.12c-0.17,0.08-0.38,0.18-0.62,0.31c-0.23,0.13-0.47,0.28-0.71,0.45
		c-0.24,0.17-0.45,0.34-0.65,0.52c-0.19,0.17-0.33,0.35-0.42,0.52c-0.72,1.43-1.43,3.02-2.15,4.77c-0.72,1.74-1.45,3.62-2.21,5.65
		c-0.66,1.76-1.15,3.12-1.49,4.08c-0.34,0.96-0.51,1.53-0.51,1.72c0,0.2,0.06,0.35,0.17,0.46c0.11,0.11,0.27,0.17,0.46,0.17
		c0.03,0,0.11-0.03,0.23-0.09c0.13-0.05,0.27-0.13,0.45-0.21c0.17-0.09,0.35-0.17,0.52-0.27c0.17-0.09,0.32-0.17,0.45-0.25
		c0.13-0.08,0.21-0.14,0.24-0.17c0.16-0.2,0.4-0.7,0.73-1.49C109.3,35.63,109.73,34.54,110.26,33.15 M103.23,33.04
		c0.14,0.25,0.29,0.43,0.47,0.56c0.17,0.12,0.32,0.18,0.45,0.18c0.07,0,0.18-0.03,0.34-0.07c0.15-0.04,0.31-0.1,0.49-0.17
		c0.18-0.07,0.33-0.13,0.47-0.2c0.14-0.07,0.23-0.12,0.28-0.16c0.09-0.09,0.15-0.19,0.17-0.3c0.03-0.11,0.04-0.24,0.03-0.38
		c0-0.26-0.04-0.46-0.1-0.59c-0.07-0.14-0.14-0.25-0.23-0.33c-0.09-0.09-0.16-0.17-0.23-0.27c-0.06-0.1-0.1-0.23-0.1-0.4
		c0-0.22,0.04-0.44,0.11-0.64c0.07-0.21,0.16-0.39,0.25-0.56c0.1-0.17,0.18-0.32,0.25-0.45c0.07-0.13,0.11-0.24,0.11-0.31
		c0-0.1-0.03-0.24-0.09-0.43c-0.06-0.19-0.14-0.38-0.24-0.59c-0.1-0.2-0.22-0.37-0.35-0.52c-0.13-0.14-0.27-0.22-0.42-0.22
		c-0.08,0-0.27,0.09-0.57,0.27c-0.3,0.18-0.69,0.44-1.16,0.78c-0.24,0.17-0.42,0.46-0.56,0.84c-0.14,0.39-0.2,0.84-0.21,1.36
		c0,0.21,0.01,0.42,0.05,0.63c0.03,0.22,0.08,0.44,0.16,0.68c-0.29,0.31-0.6,0.75-0.91,1.29c-0.31,0.55-0.67,1.2-1.08,1.96
		c0.25-0.89,0.45-1.69,0.61-2.39c0.15-0.7,0.23-1.32,0.23-1.86c0-1-0.24-1.5-0.71-1.5c-0.13,0-0.25,0.05-0.38,0.12
		c-0.13,0.08-0.28,0.16-0.46,0.24c-0.18,0.08-0.42,0.14-0.7,0.16c-0.33,0.02-0.63,0.1-0.92,0.25c-0.28,0.14-0.52,0.31-0.69,0.51
		c-0.18,0.2-0.27,0.39-0.28,0.58c0,0.16,0.07,0.29,0.22,0.39c0.15,0.1,0.37,0.15,0.67,0.16c0.12,0,0.22,0.01,0.3,0.04
		c0.07,0.03,0.13,0.08,0.17,0.17c0.04,0.09,0.05,0.22,0.05,0.4c0,0.88-0.07,1.63-0.2,2.24c-0.14,0.61-0.32,1.07-0.56,1.38
		c-0.15,0.19-0.32,0.34-0.5,0.45c-0.17,0.11-0.33,0.23-0.45,0.34c-0.13,0.11-0.2,0.26-0.2,0.44c0,0.13,0.05,0.29,0.14,0.47
		c0.09,0.19,0.21,0.37,0.37,0.56c0.16,0.18,0.33,0.34,0.53,0.46c0.2,0.12,0.4,0.19,0.61,0.19c0.13,0,0.3-0.05,0.51-0.15
		c0.21-0.1,0.43-0.22,0.66-0.37c0.23-0.15,0.45-0.31,0.64-0.47c0.2-0.17,0.35-0.32,0.45-0.46c0.14-0.2,0.28-0.46,0.42-0.77
		c0.14-0.31,0.31-0.66,0.49-1.05c0.18-0.39,0.4-0.79,0.66-1.22C102.56,33.88,102.87,33.46,103.23,33.04z M87.38,36.14
		c-0.1,0-0.17-0.02-0.21-0.06c-0.04-0.05-0.06-0.14-0.05-0.28c0-0.35,0.14-0.79,0.44-1.33c0.3-0.55,0.75-1.17,1.37-1.87
		c0.65-0.72,1.25-1.31,1.81-1.78c0.55-0.47,1.02-0.82,1.41-1.05c0.39-0.23,0.66-0.35,0.83-0.35c0.09,0,0.16,0.01,0.2,0.04
		c0.04,0.03,0.06,0.07,0.06,0.12c0,0.19-0.14,0.56-0.44,1.11c-0.3,0.56-0.77,1.26-1.43,2.12c-0.59,0.76-1.15,1.39-1.67,1.88
		c-0.52,0.49-0.99,0.86-1.39,1.09C87.9,36.02,87.59,36.14,87.38,36.14z M91.13,34.88c-0.04,0.28-0.07,0.53-0.1,0.78
		C91.01,35.9,91,36.14,91,36.37c0,0.83,0.07,1.44,0.23,1.84c0.15,0.4,0.39,0.6,0.72,0.6c0.08,0,0.16-0.02,0.24-0.04
		c0.08-0.02,0.17-0.03,0.26-0.04c0.1,0,0.2,0.02,0.29,0.05c0.09,0.03,0.18,0.06,0.26,0.09c0.09,0.03,0.18,0.04,0.29,0.05
		c0.2,0,0.38-0.05,0.52-0.14c0.14-0.09,0.25-0.2,0.33-0.31c0.08-0.12,0.12-0.22,0.12-0.3c0-0.1-0.03-0.19-0.07-0.28
		c-0.04-0.09-0.08-0.19-0.12-0.3c-0.04-0.11-0.07-0.24-0.07-0.4c0-0.13,0.07-0.59,0.23-1.38c0.15-0.79,0.4-1.9,0.74-3.34
		c0.23-0.96,0.42-1.7,0.57-2.24c0.15-0.53,0.24-0.87,0.24-1.01c0-0.21-0.13-0.42-0.36-0.63c-0.23-0.21-0.55-0.37-0.94-0.51
		c-0.39-0.13-0.83-0.2-1.3-0.21c-0.27,0-0.6,0.05-1.01,0.16c-0.4,0.1-0.86,0.27-1.36,0.49c-0.5,0.22-1.02,0.5-1.57,0.84
		c-0.98,0.61-1.86,1.26-2.62,1.97c-0.77,0.7-1.43,1.49-1.99,2.36c-0.45,0.68-0.77,1.25-0.99,1.71c-0.22,0.46-0.32,0.84-0.32,1.12
		c0,0.3,0.06,0.59,0.17,0.87c0.11,0.28,0.26,0.5,0.45,0.67c0.2,0.17,0.43,0.27,0.69,0.27c0.02,0,0.15-0.02,0.4-0.07
		c0.24-0.05,0.59-0.14,1.02-0.25c0.44-0.12,0.95-0.28,1.54-0.49c0.66-0.24,1.29-0.58,1.86-1.02C90.03,36.06,90.59,35.52,91.13,34.88
		z M70.8,38.37c-0.59,1.59-1.05,2.83-1.36,3.73c-0.31,0.9-0.47,1.46-0.48,1.67c0,0.19,0.06,0.33,0.17,0.44
		c0.11,0.1,0.27,0.16,0.46,0.16c0.11,0,0.25-0.04,0.43-0.11c0.17-0.07,0.38-0.16,0.62-0.26c0.24-0.1,0.52-0.21,0.84-0.31
		c0.37-0.1,0.65-0.2,0.84-0.31c0.19-0.1,0.29-0.24,0.29-0.4c0-0.06-0.02-0.13-0.05-0.19c-0.03-0.07-0.07-0.14-0.1-0.21
		c-0.03-0.07-0.05-0.15-0.06-0.23c0-0.31,0.14-0.84,0.41-1.59c0.27-0.74,0.65-1.72,1.14-2.92c0.9-0.42,1.71-0.76,2.44-1.01
		c0.73-0.25,1.37-0.46,1.91-0.62c0.54-0.16,0.97-0.32,1.29-0.47c1.15-0.56,2.13-1.29,2.93-2.17c0.8-0.88,1.42-1.89,1.84-3.02
		c0.42-1.13,0.63-2.35,0.64-3.66c0-1.17-0.24-2.24-0.69-3.21c-0.45-0.97-1.11-1.82-1.95-2.53c-0.85-0.72-1.85-1.27-3.03-1.66
		c-1.17-0.39-2.48-0.59-3.91-0.6c-1.17,0-2.34,0.15-3.52,0.45c-1.18,0.3-2.37,0.73-3.56,1.31c-0.79,0.38-1.44,0.75-1.96,1.11
		c-0.52,0.36-0.9,0.69-1.14,0.99c-0.13,0.17-0.21,0.34-0.24,0.52c-0.03,0.18-0.05,0.4-0.05,0.66v0.29c0,0.1,0.05,0.21,0.13,0.31
		c0.09,0.1,0.19,0.19,0.32,0.26c0.13,0.07,0.27,0.11,0.41,0.11c0.16,0,0.29-0.04,0.38-0.11c0.09-0.07,0.18-0.17,0.25-0.29
		c0.07-0.13,0.16-0.28,0.26-0.45c0.1-0.18,0.24-0.38,0.41-0.59c0.29-0.35,0.75-0.69,1.37-0.99c0.62-0.3,1.38-0.55,2.27-0.74
		c0.89-0.19,1.89-0.28,2.99-0.29c1.25,0,2.38,0.16,3.37,0.46c0.99,0.31,1.83,0.73,2.52,1.26c0.69,0.54,1.22,1.17,1.58,1.88
		c0.37,0.72,0.55,1.49,0.55,2.32c0,0.83-0.17,1.66-0.49,2.5c-0.32,0.84-0.8,1.64-1.41,2.4c-0.62,0.76-1.36,1.45-2.23,2.05
		c-0.87,0.6-1.86,1.08-2.96,1.45c0.52-1.53,1-2.86,1.43-4c0.43-1.14,0.79-2.09,1.07-2.85c0.28-0.76,0.45-1.35,0.52-1.76
		c0.02-0.16,0.04-0.37,0.06-0.63c0.01-0.26,0.05-0.58,0.1-0.94c0.04-0.31,0.1-0.6,0.15-0.85c0.05-0.25,0.08-0.48,0.09-0.67
		c0-0.2-0.06-0.36-0.16-0.48c-0.1-0.12-0.23-0.18-0.39-0.18c-0.28,0-0.58,0.26-0.9,0.79c-0.32,0.53-0.7,1.32-1.14,2.37
		c-0.43,1.05-0.96,2.36-1.57,3.93c-0.61,1.57-1.35,3.39-2.21,5.47c-0.56,0.27-0.99,0.49-1.29,0.67c-0.29,0.18-0.44,0.32-0.44,0.43
		c0,0.08,0.07,0.22,0.2,0.44C70.34,37.73,70.54,38.01,70.8,38.37z"/>
</g>
</svg>
