<?xml version="1.0" encoding="utf-8"?>
<!-- Generator: Adobe Illustrator 23.0.3, SVG Export Plug-In . SVG Version: 6.00 Build 0)  -->
<svg version="1.1" id="Layer_1" xmlns="http://www.w3.org/2000/svg" xmlns:xlink="http://www.w3.org/1999/xlink" x="0px" y="0px"
	 viewBox="0 0 384.92 51.2" style="enable-background:new 0 0 384.92 51.2;" xml:space="preserve">
<style type="text/css">
	.st0{fill:#FAFAFA;}
	.st1{fill:#2D2D2D;}
</style>
<g id="Background">
	<g>
		<rect class="st0" width="384.92" height="51.2"/>
	</g>
</g>
<polygon class="st1" points="384.92,51.2 384.92,47.82 380.28,47.82 380.28,48.87 378.25,48.87 378.25,46.18 375.31,46.18 
	375.31,44.84 373.6,44.84 373.6,47.23 372.13,47.23 372.13,48.49 368.88,48.49 368.88,47.15 367.49,47.15 367.49,45.96 
	362.52,45.96 362.52,47.3 360.89,47.3 360.89,48.57 355.19,48.57 355.19,38.8 352.91,38.8 352.91,37.83 349.65,37.83 349.65,39.03 
	348.1,39.03 348.1,48.2 346.47,48.2 346.47,38.73 344.84,38.73 344.84,37.76 341.67,37.76 341.67,38.95 339.71,38.95 339.71,46.93 
	337.1,46.93 337.1,47.67 334.42,47.67 334.42,41.04 331,41.04 331,42.31 328.39,42.31 328.39,43.87 327.41,43.87 327.41,47.52 
	324.07,47.52 324.07,45.51 321.63,45.51 321.63,34.33 303.46,34.33 303.46,47.82 301.26,47.82 301.26,43.05 300.28,43.05 
	300.28,40.37 297.35,40.37 297.35,38.88 295.56,38.88 295.56,35.89 289.37,35.89 289.37,38.35 288.47,38.35 288.47,41.19 
	287.41,41.19 287.41,42.16 284.07,42.16 284.07,38.65 282.93,38.65 282.93,35.75 279.35,35.75 279.35,21.13 272.18,21.13 
	272.18,17.78 270.38,17.78 270.38,21.13 266.15,21.13 266.15,35.89 264.11,35.89 264.11,43.35 261.26,43.35 261.26,44.99 
	258.26,44.99 258.26,29.26 256.78,29.26 256.78,20.17 254.66,20.17 254.66,19.27 252.87,19.27 252.87,16.51 248.88,16.51 
	248.88,18.3 246.19,18.3 246.19,17.11 240.08,17.11 240.08,18.97 238.94,18.97 238.94,20.31 237.39,20.31 237.39,28.89 
	234.46,28.89 234.46,43.65 232.75,43.65 232.75,21.06 230.55,21.06 230.55,19.27 221.59,19.27 221.59,21.21 219.14,21.21 
	219.14,33.81 212.87,33.81 212.87,36.79 211.73,36.79 211.73,20.09 210.18,20.09 210.18,18.3 202.12,18.3 202.12,20.09 
	200.73,20.09 200.73,21.88 198.61,21.88 198.61,21.13 188.35,21.13 188.35,15.39 186.39,15.39 186.39,11.89 184.36,11.89 
	184.36,10.7 182.16,10.7 182.16,9.06 179.31,9.06 179.31,10.85 177.35,10.85 177.35,12.26 175.97,12.26 175.97,15.62 173.77,15.62 
	173.77,19.12 170.92,19.12 170.92,21.51 169.86,21.51 169.86,23.97 167.66,23.97 167.66,4.59 154.54,4.59 154.54,13.9 148.51,13.9 
	148.51,20.24 147.62,20.24 147.62,23.74 145.5,23.74 145.5,22.1 144.52,22.1 144.52,19.2 136.21,19.2 136.21,23.3 135.23,23.3 
	135.23,25.46 132.46,25.46 132.46,23.97 121.73,23.97 121.73,25.76 119.27,25.76 119.27,43.42 118.12,43.42 118.12,40.67 
	116.09,40.67 116.09,27.1 113.56,27.1 113.56,25.83 111.93,25.83 111.93,23.74 105.42,23.74 105.42,26.13 103.79,26.13 
	103.79,31.27 95.15,31.27 95.15,33.06 93.69,33.06 93.69,35.97 91.32,35.97 91.32,15.62 89.45,15.62 89.45,10.92 86.35,10.92 
	86.35,10.03 83.83,10.03 83.83,11 82.77,11 82.77,13.53 79.92,13.53 79.92,11 78.45,11 78.45,11.74 73.24,11.74 73.24,39.55 
	62.89,39.55 62.89,37.39 54.09,37.39 54.09,40.22 52.87,40.22 52.87,38.43 48.88,38.43 48.88,37.46 43.26,37.46 43.26,36.04 
	39.35,36.04 39.35,37.76 34.38,37.76 34.38,39.47 29.73,39.47 29.73,46.41 21.51,46.41 21.51,44.39 14.58,44.39 14.58,41.19 
	11.81,41.19 11.81,43.13 10.1,43.13 10.1,40.44 3.58,40.44 3.58,42.38 0,42.38 0,51.2 "/>
</svg>
